<svg xmlns="http://www.w3.org/2000/svg" xmlns:xlink="http://www.w3.org/1999/xlink" viewBox="0 0 1804.25 1202.36"><defs><style>.cls-1{fill:none;}.cls-2,.cls-7{fill:#00a3d8;}.cls-3,.cls-8{fill:#fff;}.cls-4,.cls-6{fill:#e22d65;}.cls-5{clip-path:url(#clip-path);}.cls-6{opacity:0.4;}.cls-7{opacity:0.3;}.cls-8{font-size:51px;font-family:Ubuntu-BoldItalic, Ubuntu;font-weight:700;font-style:italic;}.cls-9{letter-spacing:-0.02em;}.cls-10{letter-spacing:-0.01em;}.cls-11{letter-spacing:-0.02em;}.cls-12{font-size:30px;font-family:Ubuntu-Regular, Ubuntu;font-weight:400;font-style:normal;}.cls-13{letter-spacing:-0.01em;}.cls-14{letter-spacing:-0.03em;}.cls-15{letter-spacing:-0.01em;}</style><clipPath id="clip-path" transform="translate(509.19 1.69)"><rect class="cls-1" width="1201.07" height="1199.99"/></clipPath></defs><g id="Capa_2" data-name="Capa 2"><g id="FACEBOOK1"><path class="cls-2" d="M164.09,1099.77c-3.21,36.76-35.66,66.59-72.42,66.59s-64-29.83-60.76-66.59,35.66-66.6,72.42-66.6S167.31,1063,164.09,1099.77Z" transform="translate(509.19 1.69)"/><path class="cls-3" d="M79.08,1079.58c2.38-5.38,3.6-13.21,14-13.21h30c-2,6.53-6,13.21-15.8,13.21Z" transform="translate(509.19 1.69)"/><path class="cls-3" d="M92.69,1110.08a10.41,10.41,0,0,1-9.85,8.38,6.84,6.84,0,0,1-6.9-8.38,10.42,10.42,0,0,1,9.86-8.37C90.44,1101.64,93.51,1105.45,92.69,1110.08Z" transform="translate(509.19 1.69)"/><path class="cls-3" d="M73.76,1121.32l-5.44,12s4.29,1,14.84,1c24,0,39.77-7.69,39.77-24.92s-16.75-23.49-36-23.49l-10.07.48-5.59,12.46c-.13,0,5.59-.48,11.85-.48,17.71,0,25.4,4.29,25.4,11s-6.2,12.46-25.88,12.46C78.33,1121.79,73.56,1121.32,73.76,1121.32Z" transform="translate(509.19 1.69)"/><circle class="cls-4" cx="663.97" cy="1042.22" r="26.33"/><path class="cls-3" d="M154.29,1052.18H149l4.5-18.94h5.36Zm2.59-21.24a3.36,3.36,0,0,1-2-.67,2.37,2.37,0,0,1-.89-2,3.46,3.46,0,0,1,.3-1.43,3.74,3.74,0,0,1,.81-1.15,4,4,0,0,1,1.17-.77,3.57,3.57,0,0,1,1.42-.29,3.27,3.27,0,0,1,2,.67,2.35,2.35,0,0,1,.9,2,3.27,3.27,0,0,1-.31,1.42,3.52,3.52,0,0,1-.81,1.15,3.63,3.63,0,0,1-1.17.78A3.53,3.53,0,0,1,156.88,1030.94Z" transform="translate(509.19 1.69)"/><g class="cls-5"><image width="1280" height="853" transform="scale(1.41)" xlink:href="Links/pexels-mentatdgt-1185433.jpg"/></g><polygon class="cls-6" points="610.15 1005.59 1711.69 1005.59 1711.69 604.96 737.65 604.96 610.15 1005.59"/><polygon class="cls-7" points="610.15 1005.59 1710.09 1005.59 1710.09 604.96 737.65 604.96 610.15 1005.59"/><text class="cls-8" transform="translate(909.14 744.23)">Ci<tspan class="cls-9" x="46.97" y="0">r</tspan><tspan x="67.68" y="0">cu</tspan><tspan class="cls-10" x="121.79" y="0">l</tspan><tspan x="137.19" y="0">ación no</tspan><tspan class="cls-11" x="334.71" y="0">r</tspan><tspan x="355.62" y="0">malizada en </tspan><tspan class="cls-10" x="0" y="61.2">l</tspan><tspan x="15.4" y="61.2">a L1 de Met</tspan><tspan class="cls-9" x="289.98" y="61.2">r</tspan><tspan x="310.69" y="61.2">o</tspan><tspan class="cls-12"><tspan x="0" y="126">Entre Puen</tspan><tspan class="cls-13" x="151.14" y="126">t</tspan><tspan x="162.9" y="126">e de </tspan><tspan class="cls-14" x="227.96" y="126">V</tspan><tspan x="246.89" y="126">allecas y Al</tspan><tspan class="cls-15" x="395.54" y="126">t</tspan><tspan x="407.18" y="126">o del Arenal se </tspan><tspan x="0" y="162">sol</tspan><tspan class="cls-15" x="39.27" y="162">v</tspan><tspan x="53.91" y="162">enta la incidencia.</tspan></tspan></text><path class="cls-2" d="M1100.67,1018.68c-2.4,27.48-26.66,49.79-54.15,49.79s-47.84-22.31-45.43-49.79,26.66-49.8,54.15-49.8S1103.08,991.19,1100.67,1018.68Z" transform="translate(509.19 1.69)"/><path class="cls-3" d="M1037.1,1003.58c1.78-4,2.7-9.88,10.49-9.88H1070c-1.47,4.89-4.48,9.88-11.81,9.88Z" transform="translate(509.19 1.69)"/><path class="cls-3" d="M1047.29,1026.39a7.79,7.79,0,0,1-7.37,6.26,5.11,5.11,0,0,1-5.16-6.26,7.79,7.79,0,0,1,7.37-6.26A5.09,5.09,0,0,1,1047.29,1026.39Z" transform="translate(509.19 1.69)"/><path class="cls-3" d="M1033.13,1034.79l-4.07,9s3.21.71,11.1.71c17.92,0,29.73-5.75,29.73-18.63s-12.52-17.56-26.88-17.56l-7.54.35-4.17,9.32c-.1,0,4.17-.36,8.86-.36,13.24,0,19,3.21,19,8.25s-4.63,9.32-19.35,9.32C1036.54,1035.15,1033,1034.79,1033.13,1034.79Z" transform="translate(509.19 1.69)"/><circle class="cls-4" cx="1602.9" cy="976.07" r="19.69"/><path class="cls-3" d="M1093.34,983.09h-4l3.36-14.16h4Zm1.94-15.88a2.43,2.43,0,0,1-1.51-.5,1.75,1.75,0,0,1-.67-1.52,2.56,2.56,0,0,1,.23-1.06,2.77,2.77,0,0,1,.6-.86,2.93,2.93,0,0,1,.88-.58,2.68,2.68,0,0,1,1.06-.22,2.49,2.49,0,0,1,1.51.5,1.76,1.76,0,0,1,.67,1.52,2.45,2.45,0,0,1-.23,1.07,2.77,2.77,0,0,1-.6.86,3.13,3.13,0,0,1-.88.58A2.67,2.67,0,0,1,1095.28,967.21Z" transform="translate(509.19 1.69)"/></g></g></svg>