<svg xmlns="http://www.w3.org/2000/svg" viewBox="0 0 526.33 417.17"><defs><style>.cls-1{fill:#606060;}.cls-2{fill:#00a3d8;}</style></defs><g id="Capa_2" data-name="Capa 2"><g id="Tipo"><path class="cls-1" d="M36.86,5h9.36l-10,41.58H26.84l4.26-17.7H16.34l-4.26,17.7H2.78L12.74,5H22.1l-3.84,16H33Z"/><path class="cls-1" d="M53.12,13.62q1.92-.72,4-1.65t4.17-2q2.07-1.11,4-2.34A29.74,29.74,0,0,0,69,5H75.2l-10,41.58H56.24l7.2-29.94a37.09,37.09,0,0,1-4.56,2.19q-2.46,1-4.68,1.71Z"/><path class="cls-1" d="M108.32,47.1q-3.6,0-7.38-.3a52.18,52.18,0,0,1-6.84-1l9.6-40.2a57.07,57.07,0,0,1,7.17-.9q3.75-.24,6.87-.24a22.65,22.65,0,0,1,6.21.75,12.79,12.79,0,0,1,4.26,2,8.07,8.07,0,0,1,2.46,3,8.37,8.37,0,0,1,.81,3.63,15,15,0,0,1-.27,2.76,9.07,9.07,0,0,1-1.08,2.85,10.87,10.87,0,0,1-2.22,2.67,14.23,14.23,0,0,1-3.69,2.28,8.48,8.48,0,0,1,4,3.27,8.66,8.66,0,0,1,1.26,4.59,14,14,0,0,1-1.14,5.55,12.46,12.46,0,0,1-3.66,4.74,18.92,18.92,0,0,1-6.54,3.3A33.76,33.76,0,0,1,108.32,47.1Zm-.84-18.72-2.58,10.8a20.31,20.31,0,0,0,2.43.27q1.47.09,2.73.09a23.64,23.64,0,0,0,3.57-.27,10.39,10.39,0,0,0,3.18-1,6.33,6.33,0,0,0,2.31-2,5.44,5.44,0,0,0,.9-3.24,4.57,4.57,0,0,0-.33-1.68,4,4,0,0,0-1-1.5,5.52,5.52,0,0,0-1.89-1.08,8.28,8.28,0,0,0-2.79-.42Zm1.74-7h5.88q3.6,0,5.37-1.56a4.8,4.8,0,0,0,1.77-3.72,3.59,3.59,0,0,0-.51-1.95,3.79,3.79,0,0,0-1.35-1.29,6.24,6.24,0,0,0-1.92-.69,11.61,11.61,0,0,0-2.22-.21q-1.26,0-2.7.09t-2.16.21Z"/><path class="cls-1" d="M147.56,47.4a14.49,14.49,0,0,1-5.52-1,10.22,10.22,0,0,1-3.87-2.7,11.66,11.66,0,0,1-2.31-4.11,16.72,16.72,0,0,1-.78-5.25,23.18,23.18,0,0,1,1.17-7.2,20.61,20.61,0,0,1,3.45-6.48A18.44,18.44,0,0,1,145.28,16a15.33,15.33,0,0,1,7.56-1.83,14.55,14.55,0,0,1,5.49,1,10.18,10.18,0,0,1,3.9,2.7,11.66,11.66,0,0,1,2.31,4.11,16.72,16.72,0,0,1,.78,5.25,23.73,23.73,0,0,1-1.14,7.2,20.81,20.81,0,0,1-3.36,6.48,17.63,17.63,0,0,1-5.55,4.71A15.75,15.75,0,0,1,147.56,47.4ZM152,21.72a5.59,5.59,0,0,0-3.48,1.14A9.77,9.77,0,0,0,146,25.74a14.21,14.21,0,0,0-1.53,3.81,16.44,16.44,0,0,0-.51,3.93,9.46,9.46,0,0,0,1,4.71,3.68,3.68,0,0,0,3.48,1.65,5.59,5.59,0,0,0,3.48-1.14,9.77,9.77,0,0,0,2.52-2.88A14.21,14.21,0,0,0,155.93,32a16.44,16.44,0,0,0,.51-3.93,9.46,9.46,0,0,0-1-4.71A3.68,3.68,0,0,0,152,21.72Z"/><path class="cls-1" d="M180.8,47.16a16.43,16.43,0,0,1-6.69-1.11,7.19,7.19,0,0,1-3.48-3,8.81,8.81,0,0,1-1-4.41,24.66,24.66,0,0,1,.69-5.31l7.62-31.86L187.22,0l-8.34,34.56a10.86,10.86,0,0,0-.27,2,3.15,3.15,0,0,0,.33,1.59,2.59,2.59,0,0,0,1.23,1.11,7,7,0,0,0,2.43.54Z"/><path class="cls-1" d="M198.86,47.4a11.79,11.79,0,0,1-5.13-1,9.4,9.4,0,0,1-3.48-2.79,11.7,11.7,0,0,1-2-4.14,19.67,19.67,0,0,1-.63-5.07,20.34,20.34,0,0,1,1.47-7.71,19.84,19.84,0,0,1,4-6.33A18.89,18.89,0,0,1,207,14.52a15.74,15.74,0,0,1,2,.12,16.5,16.5,0,0,1,1.89.36l3.24-13.56L223.46,0l-7.92,32.94a19.92,19.92,0,0,0-.48,6.87A24.63,24.63,0,0,0,216.44,46l-8,1.14q-.36-.72-.66-1.38t-.6-1.5a15.79,15.79,0,0,1-3.75,2.28A11.39,11.39,0,0,1,198.86,47.4Zm10.32-25.26-.63-.12a5.07,5.07,0,0,0-.54-.09,6.47,6.47,0,0,0-.69,0h-1.08a8,8,0,0,0-3.9,1,9.85,9.85,0,0,0-3.09,2.67,13.08,13.08,0,0,0-2,3.81,13.5,13.5,0,0,0-.72,4.35,8.8,8.8,0,0,0,1,4.53,3.82,3.82,0,0,0,3.57,1.65,5.81,5.81,0,0,0,2.52-.54,8.92,8.92,0,0,0,2.4-1.8q.12-1.5.39-3.15t.57-3Z"/><path class="cls-1" d="M244.52,46.56h-8.88L243.14,15h8.94Zm4.32-35.4a5.51,5.51,0,0,1-3.36-1.11A3.94,3.94,0,0,1,244,6.66a5.61,5.61,0,0,1,.51-2.37,6.28,6.28,0,0,1,1.35-1.92,6.5,6.5,0,0,1,1.95-1.29A5.91,5.91,0,0,1,250.16.6a5.51,5.51,0,0,1,3.36,1.11A3.94,3.94,0,0,1,255,5.1a5.61,5.61,0,0,1-.51,2.37,6.28,6.28,0,0,1-1.35,1.92,6.5,6.5,0,0,1-1.95,1.29A5.91,5.91,0,0,1,248.84,11.16Z"/><path class="cls-1" d="M261.2,7.14l9.3-1.44L268.22,15h10l-1.8,7.32h-9.9l-2.64,11a14.59,14.59,0,0,0-.45,2.58,4.24,4.24,0,0,0,.3,2.07A2.77,2.77,0,0,0,265,39.36a6,6,0,0,0,2.64.48,14.19,14.19,0,0,0,2.79-.27,20.62,20.62,0,0,0,2.73-.75l.66,6.84A32.13,32.13,0,0,1,270,46.8a22.6,22.6,0,0,1-5,.48,13.71,13.71,0,0,1-6.42-1.23,7.11,7.11,0,0,1-3.24-3.36,10.64,10.64,0,0,1-.84-4.89,31.41,31.41,0,0,1,.84-5.82Z"/><path class="cls-1" d="M306,32.94a19.92,19.92,0,0,0-.48,6.87A24.19,24.19,0,0,0,306.86,46l-8,1.14q-.36-.72-.66-1.38t-.6-1.5a16.22,16.22,0,0,1-3.72,2.28,11.18,11.18,0,0,1-4.56.9,11.44,11.44,0,0,1-5.13-1,9.68,9.68,0,0,1-3.48-2.82,11.16,11.16,0,0,1-2-4.14,21.54,21.54,0,0,1,.87-12.87,19.68,19.68,0,0,1,4.08-6.39,19,19,0,0,1,6.15-4.29,18.83,18.83,0,0,1,7.68-1.56q.54,0,1.89.06t3.09.27a29.9,29.9,0,0,1,3.66.69,19,19,0,0,1,3.66,1.32Zm-6.24-11q-.78-.12-1.41-.18t-1.53-.06a7.5,7.5,0,0,0-3.81,1,10.78,10.78,0,0,0-3.09,2.67,12.72,12.72,0,0,0-2.07,3.81,13.37,13.37,0,0,0-.75,4.5,9.2,9.2,0,0,0,1,4.56,3.72,3.72,0,0,0,3.54,1.68,5.65,5.65,0,0,0,2.49-.54,9.16,9.16,0,0,0,2.37-1.8q.12-1.5.39-3.15c.18-1.1.36-2.11.57-3Z"/><path class="cls-1" d="M324.74,47.16a16.43,16.43,0,0,1-6.69-1.11,7.19,7.19,0,0,1-3.48-3,8.81,8.81,0,0,1-1-4.41,24.66,24.66,0,0,1,.69-5.31l7.62-31.86L331.16,0l-8.34,34.56a10.86,10.86,0,0,0-.27,2,3.15,3.15,0,0,0,.33,1.59,2.59,2.59,0,0,0,1.23,1.11,7,7,0,0,0,2.43.54Z"/><path class="cls-1" d="M339.44,46.56h-8.88L338.06,15H347Zm4.32-35.4a5.49,5.49,0,0,1-3.36-1.11,3.94,3.94,0,0,1-1.5-3.39,5.61,5.61,0,0,1,.51-2.37,6.28,6.28,0,0,1,1.35-1.92,6.37,6.37,0,0,1,1.95-1.29A5.91,5.91,0,0,1,345.08.6a5.53,5.53,0,0,1,3.36,1.11,4,4,0,0,1,1.5,3.39,5.76,5.76,0,0,1-.51,2.37,6.64,6.64,0,0,1-1.35,1.92,6.54,6.54,0,0,1-2,1.29A5.86,5.86,0,0,1,343.76,11.16Z"/><path class="cls-1" d="M349.33,34a21.91,21.91,0,0,1,1.33-7.68,18.72,18.72,0,0,1,3.77-6.3,17.72,17.72,0,0,1,6-4.26,19,19,0,0,1,7.83-1.56,20.87,20.87,0,0,1,4.83.51A19.24,19.24,0,0,1,376.93,16l-3.05,7c-.81-.32-1.63-.61-2.5-.87a11,11,0,0,0-3.14-.39,8.79,8.79,0,0,0-7.08,3c-1.73,2-2.58,4.77-2.58,8.25a8.47,8.47,0,0,0,1.31,5q1.32,1.89,4.86,1.89a15.47,15.47,0,0,0,3.37-.36,16.3,16.3,0,0,0,2.88-.9l.66,7.14a31.63,31.63,0,0,1-3.7,1.17,20.08,20.08,0,0,1-4.88.51,16.25,16.25,0,0,1-6.3-1.08,11.89,11.89,0,0,1-4.27-2.91,11,11,0,0,1-2.43-4.29A17.6,17.6,0,0,1,349.33,34Z"/><path class="cls-1" d="M424.39,11.7q-3.72.12-6.93.54a22.26,22.26,0,0,0-5.88,1.56,15.54,15.54,0,0,0-4.68,3.06,15,15,0,0,0-3.33,5,12.5,12.5,0,0,1,3.63-1.23,21,21,0,0,1,3.87-.39,12.41,12.41,0,0,1,4.17.69,9.42,9.42,0,0,1,3.42,2.1A9.85,9.85,0,0,1,421,26.52a13,13,0,0,1,.84,4.86,17.47,17.47,0,0,1-1.26,6.87,14.67,14.67,0,0,1-3.42,5,14.47,14.47,0,0,1-5,3.09,17.55,17.55,0,0,1-6.06,1,13.93,13.93,0,0,1-5.22-1,11.86,11.86,0,0,1-4.17-2.79,13,13,0,0,1-2.79-4.56,18,18,0,0,1-1-6.33,30.72,30.72,0,0,1,1.8-10.35,25.54,25.54,0,0,1,5.52-9A27.51,27.51,0,0,1,409.57,7a34.27,34.27,0,0,1,13.5-2.43h1.11q.63,0,1.29.06ZM413.29,32q0-2.88-1.56-4A6.37,6.37,0,0,0,408,26.94a12.23,12.23,0,0,0-3,.39,21.64,21.64,0,0,0-2.85.93,14.36,14.36,0,0,0-.78,4.68,9,9,0,0,0,1.32,5A4.5,4.5,0,0,0,406.75,40a6,6,0,0,0,4.71-2.1A8.66,8.66,0,0,0,413.29,32Z"/><path class="cls-1" d="M437.11,47.4a10.78,10.78,0,0,1-5-1,9.46,9.46,0,0,1-3.33-2.79,11.31,11.31,0,0,1-1.86-3.93,17.91,17.91,0,0,1-.57-4.53,48.3,48.3,0,0,1,1.53-12.54,33.55,33.55,0,0,1,4.26-9.84,20.28,20.28,0,0,1,6.57-6.42A16.37,16.37,0,0,1,447.25,4a10.78,10.78,0,0,1,5,1.05,9.46,9.46,0,0,1,3.33,2.79,11.31,11.31,0,0,1,1.86,3.93,17.91,17.91,0,0,1,.57,4.53,48.3,48.3,0,0,1-1.53,12.54,33.55,33.55,0,0,1-4.26,9.84,20.28,20.28,0,0,1-6.57,6.42A16.37,16.37,0,0,1,437.11,47.4Zm1.38-7.68A6,6,0,0,0,442,38.58a11.08,11.08,0,0,0,2.85-3A22.64,22.64,0,0,0,447,31.35a37.6,37.6,0,0,0,1.53-4.83,43.74,43.74,0,0,0,.9-4.8,33,33,0,0,0,.3-4.14,8.49,8.49,0,0,0-.93-4.5A3.16,3.16,0,0,0,446,11.64a6.11,6.11,0,0,0-3.6,1.14,11.49,11.49,0,0,0-2.88,3A21.27,21.27,0,0,0,437.32,20a39,39,0,0,0-1.53,4.86,43.74,43.74,0,0,0-.9,4.8,33,33,0,0,0-.3,4.14,8.09,8.09,0,0,0,1,4.5A3.34,3.34,0,0,0,438.49,39.72Z"/><path class="cls-1" d="M491.17,27.3a21.54,21.54,0,0,1-1.44,8,19,19,0,0,1-4,6.27,17.83,17.83,0,0,1-6.12,4.11,20.21,20.21,0,0,1-7.77,1.47,23.44,23.44,0,0,1-4.08-.36l-2.7,10.86h-8.88l10-41.52a52.21,52.21,0,0,1,5.49-1.29,36.91,36.91,0,0,1,6.69-.57,14.91,14.91,0,0,1,5.79,1,10.78,10.78,0,0,1,4,2.79,11.36,11.36,0,0,1,2.31,4.14A16.71,16.71,0,0,1,491.17,27.3ZM469.39,39.6a11.21,11.21,0,0,0,2.52.24,10.2,10.2,0,0,0,4.26-.87,9.4,9.4,0,0,0,3.27-2.43,11.2,11.2,0,0,0,2.1-3.75,14.83,14.83,0,0,0,.75-4.83,8,8,0,0,0-1.14-4.38,4.32,4.32,0,0,0-4-1.8,17.16,17.16,0,0,0-3.6.36Z"/><path class="cls-1" d="M505.45,15,510,24.84q2-2.52,3.87-4.92T517.39,15h8.94q-2.52,3.6-5.52,7.47t-7,8.07q2.4,4.5,4.08,8.31t3,7.71h-8.82Q511,43.62,510,41.16t-2.1-4.56l-8.7,10h-9.36l14.34-16.08L496.39,15Z"/><path class="cls-2" d="M0,72.36H1.94V86.22H0Z"/><path class="cls-2" d="M5.26,76.12c.43-.1,1-.22,1.7-.34A14.74,14.74,0,0,1,9.4,75.6a5.33,5.33,0,0,1,2.06.35,3.28,3.28,0,0,1,1.31,1,3.74,3.74,0,0,1,.69,1.51,9,9,0,0,1,.2,1.94v5.84H11.8V80.78a8.65,8.65,0,0,0-.13-1.64,2.84,2.84,0,0,0-.43-1.1,1.74,1.74,0,0,0-.8-.61,3.67,3.67,0,0,0-1.24-.19l-.62,0-.61,0-.52.07-.33.06v8.78H5.26Z"/><path class="cls-2" d="M18.48,75.82h3.94v1.56H18.48v4.8a5.77,5.77,0,0,0,.12,1.29,1.92,1.92,0,0,0,.36.8,1.25,1.25,0,0,0,.6.41,2.66,2.66,0,0,0,.84.12,3.87,3.87,0,0,0,1.35-.19c.34-.12.58-.21.71-.27l.36,1.54a6.14,6.14,0,0,1-1,.35,5.59,5.59,0,0,1-1.6.21,4.84,4.84,0,0,1-1.75-.27,2.55,2.55,0,0,1-1.11-.81A3.18,3.18,0,0,1,16.79,84a8.9,8.9,0,0,1-.17-1.83V72.92l1.86-.32Z"/><path class="cls-2" d="M24,81a6.58,6.58,0,0,1,.4-2.41,5.22,5.22,0,0,1,1.06-1.71,4.43,4.43,0,0,1,1.52-1,4.87,4.87,0,0,1,1.76-.34A4,4,0,0,1,32,76.87a6,6,0,0,1,1.12,4v.31a3.49,3.49,0,0,1,0,.35H25.94A3.79,3.79,0,0,0,26.88,84a3.45,3.45,0,0,0,2.56.84,6.54,6.54,0,0,0,1.65-.17,5.4,5.4,0,0,0,1-.33l.26,1.56a5.35,5.35,0,0,1-1.19.38,8.12,8.12,0,0,1-1.93.2,6,6,0,0,1-2.35-.41,4.37,4.37,0,0,1-1.63-1.13,4.61,4.61,0,0,1-1-1.71A7.11,7.11,0,0,1,24,81Zm7.14-1A3.16,3.16,0,0,0,30.51,78a2.16,2.16,0,0,0-1.79-.81,2.54,2.54,0,0,0-1.13.25,2.82,2.82,0,0,0-.83.65,3.11,3.11,0,0,0-.53.92A4.41,4.41,0,0,0,26,80Z"/><path class="cls-2" d="M39.6,75.6l.55,0,.61.08.55.1.37.09-.32,1.62c-.15,0-.39-.11-.73-.19a6.67,6.67,0,0,0-1.31-.11,5.07,5.07,0,0,0-1,.11l-.67.15v8.74H35.76v-10a12.8,12.8,0,0,1,1.64-.45A10.54,10.54,0,0,1,39.6,75.6Z"/><path class="cls-2" d="M46.6,86.42a3.51,3.51,0,0,1-2.44-.74,2.91,2.91,0,0,1-.72-2.18V71l1.86-.32V83.2a3.16,3.16,0,0,0,.08.76,1,1,0,0,0,.26.48,1.12,1.12,0,0,0,.48.27,5,5,0,0,0,.74.15Z"/><path class="cls-2" d="M49.86,73.94a1.19,1.19,0,0,1-.85-.33,1.17,1.17,0,0,1-.35-.89,1.2,1.2,0,1,1,2.4,0,1.17,1.17,0,0,1-.35.89A1.19,1.19,0,0,1,49.86,73.94Zm.94,12.28H48.94V75.82H50.8Z"/><path class="cls-2" d="M54,76.12c.42-.1,1-.22,1.7-.34a14.74,14.74,0,0,1,2.44-.18A5.37,5.37,0,0,1,60.2,76a3.28,3.28,0,0,1,1.31,1,3.88,3.88,0,0,1,.69,1.51,9,9,0,0,1,.2,1.94v5.84H60.54V80.78a8.65,8.65,0,0,0-.13-1.64A2.84,2.84,0,0,0,60,78a1.74,1.74,0,0,0-.8-.61,3.72,3.72,0,0,0-1.24-.19l-.62,0-.61,0-.52.07-.33.06v8.78H54Z"/><path class="cls-2" d="M64.9,81a6.58,6.58,0,0,1,.4-2.41,5.06,5.06,0,0,1,1.06-1.71,4.33,4.33,0,0,1,1.52-1,4.87,4.87,0,0,1,1.76-.34,4,4,0,0,1,3.22,1.31,6.09,6.09,0,0,1,1.12,4v.31a3.49,3.49,0,0,1,0,.35H66.84A3.79,3.79,0,0,0,67.78,84a3.43,3.43,0,0,0,2.56.84A6.54,6.54,0,0,0,72,84.65a5.67,5.67,0,0,0,1-.33l.26,1.56a5.54,5.54,0,0,1-1.19.38,8.12,8.12,0,0,1-1.93.2,6,6,0,0,1-2.35-.41,4.29,4.29,0,0,1-1.63-1.13,4.47,4.47,0,0,1-1-1.71A7.11,7.11,0,0,1,64.9,81ZM72,80A3.16,3.16,0,0,0,71.41,78a2.18,2.18,0,0,0-1.79-.81,2.51,2.51,0,0,0-1.13.25,2.7,2.7,0,0,0-.83.65,2.91,2.91,0,0,0-.53.92A4.41,4.41,0,0,0,66.88,80Z"/><path class="cls-2" d="M80,75.56a5.52,5.52,0,0,1,1.89.29,3.24,3.24,0,0,1,1.24.82,3.33,3.33,0,0,1,.67,1.26,6.28,6.28,0,0,1,.2,1.61V86l-.67.11c-.29,0-.61.09-1,.13l-1.17.11c-.42,0-.84,0-1.25,0a6.81,6.81,0,0,1-1.62-.18,3.57,3.57,0,0,1-1.28-.57,2.59,2.59,0,0,1-.84-1,3.58,3.58,0,0,1-.3-1.54,2.92,2.92,0,0,1,.35-1.48,2.84,2.84,0,0,1,1-1,4.41,4.41,0,0,1,1.4-.56,7.59,7.59,0,0,1,1.68-.18l.58,0,.57.08.47.09.28.06v-.52a4.7,4.7,0,0,0-.1-.91,2.24,2.24,0,0,0-.36-.8,1.91,1.91,0,0,0-.71-.56,2.78,2.78,0,0,0-1.17-.21,9.36,9.36,0,0,0-1.61.13,6.06,6.06,0,0,0-1,.27L77,76a6.19,6.19,0,0,1,1.2-.31A10.31,10.31,0,0,1,80,75.56Zm.16,9.32q.66,0,1.17,0a4.53,4.53,0,0,0,.85-.11v-3.1a2.92,2.92,0,0,0-.65-.17,8.31,8.31,0,0,0-1.09-.07,7,7,0,0,0-.89.06,2.87,2.87,0,0,0-.86.25,1.85,1.85,0,0,0-.65.52,1.33,1.33,0,0,0-.26.87,1.48,1.48,0,0,0,.64,1.39A3.3,3.3,0,0,0,80.18,84.88Z"/><path class="cls-2" d="M93.82,71l1.86-.32V85.92c-.43.12-1,.24-1.64.36a13.17,13.17,0,0,1-2.3.18,5.69,5.69,0,0,1-2.16-.38,4.57,4.57,0,0,1-2.69-2.79A6.47,6.47,0,0,1,86.52,81a7.31,7.31,0,0,1,.31-2.2,4.88,4.88,0,0,1,.91-1.72A4.17,4.17,0,0,1,89.21,76a5.25,5.25,0,0,1,3.58-.16,5.51,5.51,0,0,1,1,.46Zm0,7a4.51,4.51,0,0,0-1-.54,3.79,3.79,0,0,0-1.4-.26,3,3,0,0,0-1.37.29,2.58,2.58,0,0,0-.93.8,3.31,3.31,0,0,0-.52,1.21,6.57,6.57,0,0,0-.16,1.5,4,4,0,0,0,.9,2.81,3.09,3.09,0,0,0,2.4,1A9.11,9.11,0,0,0,93,84.75a4.45,4.45,0,0,0,.79-.15Z"/><path class="cls-2" d="M108.06,81a6.54,6.54,0,0,1-.36,2.24,5.15,5.15,0,0,1-1,1.72,4.5,4.5,0,0,1-1.55,1.11,5.12,5.12,0,0,1-3.92,0A4.41,4.41,0,0,1,99.67,85a5,5,0,0,1-1-1.72A6.54,6.54,0,0,1,98.3,81a6.64,6.64,0,0,1,.36-2.23,5,5,0,0,1,1-1.73A4.41,4.41,0,0,1,101.22,76a5.12,5.12,0,0,1,3.92,0,4.5,4.5,0,0,1,1.55,1.11,5.19,5.19,0,0,1,1,1.73A6.64,6.64,0,0,1,108.06,81Zm-1.94,0a4.53,4.53,0,0,0-.79-2.79,2.6,2.6,0,0,0-2.15-1,2.57,2.57,0,0,0-2.15,1,5.32,5.32,0,0,0,0,5.58,2.76,2.76,0,0,0,4.3,0A4.49,4.49,0,0,0,106.12,81Z"/><path class="cls-2" d="M117,86.22a19.79,19.79,0,0,1,.57-3.37,28.75,28.75,0,0,1,1.11-3.44,26.93,26.93,0,0,1,1.45-3.1A14,14,0,0,1,121.64,74H114.9V72.36h8.82V73.9A15.54,15.54,0,0,0,122.26,76a23.64,23.64,0,0,0-1.51,3,26,26,0,0,0-1.22,3.52,18.77,18.77,0,0,0-.63,3.73Z"/><path class="cls-2" d="M134.32,75.9a3.5,3.5,0,0,1-.29,1.39,6.86,6.86,0,0,1-.77,1.32,12.64,12.64,0,0,1-1.08,1.28q-.6.63-1.2,1.23l-.79.8a12.69,12.69,0,0,0-.85,1,9,9,0,0,0-.67,1,1.68,1.68,0,0,0-.27.8h6.38v1.58h-8.4a1,1,0,0,1,0-.24v-.22a4.81,4.81,0,0,1,.31-1.75,6.61,6.61,0,0,1,.81-1.53,10.24,10.24,0,0,1,1.12-1.36l1.22-1.24c.33-.32.65-.63,1-.95a9.74,9.74,0,0,0,.8-.94,4.52,4.52,0,0,0,.56-1,2.67,2.67,0,0,0,.21-1.06,2.58,2.58,0,0,0-.19-1,2.15,2.15,0,0,0-.51-.7,2.28,2.28,0,0,0-.75-.41,3.39,3.39,0,0,0-.91-.13,3.52,3.52,0,0,0-1.06.16,5.29,5.29,0,0,0-.86.37,3.39,3.39,0,0,0-.64.44L127,75l-.92-1.32a6,6,0,0,1,.54-.49,5.57,5.57,0,0,1,.86-.55,6.08,6.08,0,0,1,1.12-.44A4.77,4.77,0,0,1,130,72a4.69,4.69,0,0,1,3.27,1A3.74,3.74,0,0,1,134.32,75.9Z"/><path class="cls-2" d="M151.64,81a7.5,7.5,0,0,1-.31,2.18,5,5,0,0,1-.91,1.72A4.06,4.06,0,0,1,149,86.06a4.68,4.68,0,0,1-2,.4,4.83,4.83,0,0,1-1.59-.24,4.69,4.69,0,0,1-1-.46v4.16h-1.86V76.14c.44-.1,1-.22,1.65-.35a12.82,12.82,0,0,1,2.29-.19,5.9,5.9,0,0,1,2.16.38,4.57,4.57,0,0,1,2.69,2.79A6.75,6.75,0,0,1,151.64,81Zm-1.94,0a4,4,0,0,0-.9-2.8,3.11,3.11,0,0,0-2.4-1,10.94,10.94,0,0,0-1.31.06,5.37,5.37,0,0,0-.75.14V84a3.49,3.49,0,0,0,1,.54,3.53,3.53,0,0,0,1.4.26,2.92,2.92,0,0,0,1.37-.29,2.49,2.49,0,0,0,.93-.8,3.44,3.44,0,0,0,.52-1.2A7,7,0,0,0,149.7,81Z"/><path class="cls-2" d="M160.14,86.22c-.15-.29-.33-.62-.54-1s-.45-.73-.7-1.11L158.12,83l-.78-1.06c-.26.34-.51.69-.78,1.07s-.52.76-.77,1.14-.48.75-.69,1.11-.39.68-.54,1h-1.92a24.55,24.55,0,0,1,1.67-2.77c.65-.94,1.29-1.83,1.93-2.69l-3.44-4.94h2.1l2.48,3.64,2.5-3.64h2l-3.36,4.82c.64.87,1.29,1.79,2,2.75a25.08,25.08,0,0,1,1.71,2.83Z"/><path class="cls-1" d="M16.64,250.85h4.54v25H16.64V264.75H5.8V275.8H1.27v-25H5.8v10H16.64Z"/><path class="cls-1" d="M32.66,276.34a17.28,17.28,0,0,1-2-.12c-.68-.09-1.33-.2-1.94-.33s-1.17-.27-1.68-.43a7.67,7.67,0,0,1-1.15-.45l.87-3.71a17.24,17.24,0,0,0,2.19.81,12.13,12.13,0,0,0,3.57.45,6.15,6.15,0,0,0,4.1-1.1,4.11,4.11,0,0,0,.77-4.91,3.64,3.64,0,0,0-1.33-1.28,6,6,0,0,0-1.94-.68,13.27,13.27,0,0,0-2.32-.2H30.32v-3.53h1.8a8.66,8.66,0,0,0,1.67-.16,4.46,4.46,0,0,0,1.53-.58A3.34,3.34,0,0,0,36.44,259a3.27,3.27,0,0,0,.43-1.77,3.16,3.16,0,0,0-.32-1.47,3,3,0,0,0-.85-1,3.35,3.35,0,0,0-1.2-.58,5.68,5.68,0,0,0-1.44-.18,7.83,7.83,0,0,0-2.88.49,12.63,12.63,0,0,0-2.24,1.1l-1.58-3.24a12.66,12.66,0,0,1,1.22-.69,14.45,14.45,0,0,1,1.61-.68,11.32,11.32,0,0,1,1.89-.52,10.38,10.38,0,0,1,2.12-.2,11.63,11.63,0,0,1,3.6.5,6.82,6.82,0,0,1,2.5,1.42,6,6,0,0,1,1.48,2.16,7.51,7.51,0,0,1,.48,2.72,5.26,5.26,0,0,1-.95,3.1,6.26,6.26,0,0,1-2.47,2.09,7.1,7.1,0,0,1,3.23,2.26,6.31,6.31,0,0,1,1.27,4.07,8.19,8.19,0,0,1-.57,3.08A6.37,6.37,0,0,1,40,274.13a8.75,8.75,0,0,1-3,1.62A14.23,14.23,0,0,1,32.66,276.34Z"/><path class="cls-1" d="M61.44,250.85c.53.92,1.12,2,1.77,3.35s1.3,2.71,2,4.16,1.34,2.93,2,4.43S68.45,265.67,69,267l1.8-4.16q1-2.25,2-4.43t2-4.16c.65-1.32,1.24-2.43,1.77-3.35h4.08q.33,2.75.63,5.82t.53,6.3q.23,3.22.44,6.48c.13,2.17.25,4.29.34,6.35H78.09c-.1-2.9-.21-5.89-.35-9s-.33-6-.6-8.93c-.27.55-.58,1.21-.94,2s-.74,1.6-1.15,2.5-.82,1.83-1.24,2.79L72.58,268c-.39.9-.76,1.74-1.09,2.52l-.87,2H67.24c-.24-.55-.53-1.22-.87-2s-.7-1.63-1.09-2.53l-1.23-2.79c-.42-1-.83-1.89-1.24-2.78s-.79-1.72-1.15-2.5-.68-1.43-.94-2q-.4,4.32-.6,8.93c-.14,3.07-.25,6.06-.35,9H55.3q.15-3.09.35-6.41c.14-2.2.28-4.39.44-6.57s.34-4.27.53-6.31.41-3.93.63-5.66Z"/><path class="cls-1" d="M86.55,266.48a11.89,11.89,0,0,1,.74-4.36,9,9,0,0,1,2-3.11,8.1,8.1,0,0,1,2.81-1.87,8.65,8.65,0,0,1,3.24-.63,7.73,7.73,0,0,1,6.06,2.41c1.46,1.61,2.18,4,2.18,7.2,0,.24,0,.51,0,.81s0,.57,0,.81H91.05a5,5,0,0,0,1.6,3.51,6.07,6.07,0,0,0,4.12,1.24,13.63,13.63,0,0,0,2.9-.29,11.25,11.25,0,0,0,2.07-.61l.58,3.56a6.71,6.71,0,0,1-1,.38q-.63.2-1.44.36c-.54.11-1.12.2-1.75.27a17,17,0,0,1-1.91.11,11.63,11.63,0,0,1-4.32-.74,8,8,0,0,1-3-2,8.41,8.41,0,0,1-1.76-3.1A12.42,12.42,0,0,1,86.55,266.48Zm12.64-2a5.66,5.66,0,0,0-.26-1.71,4.06,4.06,0,0,0-.73-1.4,3.52,3.52,0,0,0-1.19-.94,4.29,4.29,0,0,0-3.44,0,4,4,0,0,0-1.28,1,4.54,4.54,0,0,0-.81,1.4,7.65,7.65,0,0,0-.39,1.62Z"/><path class="cls-1" d="M124.06,275.23a27.07,27.07,0,0,1-3.26.72,25.88,25.88,0,0,1-4.12.32,11.05,11.05,0,0,1-4-.68,8.29,8.29,0,0,1-3-2,8.67,8.67,0,0,1-1.91-3.09,11.94,11.94,0,0,1-.66-4.09,13.82,13.82,0,0,1,.55-4.05,9,9,0,0,1,1.64-3.11,7.29,7.29,0,0,1,2.63-2,8.5,8.5,0,0,1,3.56-.7,8.4,8.4,0,0,1,2.42.32,12,12,0,0,1,1.8.72v-9l4.35-.72Zm-12.49-8.9a6.85,6.85,0,0,0,1.37,4.52,4.66,4.66,0,0,0,3.78,1.64,15,15,0,0,0,1.78-.09c.49-.06.89-.13,1.21-.2V261.4a7.29,7.29,0,0,0-1.53-.74,6.24,6.24,0,0,0-2-.34,3.89,3.89,0,0,0-3.47,1.62A7.75,7.75,0,0,0,111.57,266.33Z"/><path class="cls-1" d="M134.47,251.47a2.5,2.5,0,0,1-.8,1.94,2.67,2.67,0,0,1-1.87.72,2.75,2.75,0,0,1-1.91-.72,2.52,2.52,0,0,1-.79-1.94,2.57,2.57,0,0,1,.79-2,2.75,2.75,0,0,1,1.91-.72,2.67,2.67,0,0,1,1.87.72A2.54,2.54,0,0,1,134.47,251.47ZM134,275.8h-4.36V257H134Z"/><path class="cls-1" d="M155,275.23c-.84.21-1.94.43-3.28.66a26.32,26.32,0,0,1-4.43.34,9.83,9.83,0,0,1-3.8-.64,6.2,6.2,0,0,1-2.44-1.8,7.09,7.09,0,0,1-1.32-2.76,14.85,14.85,0,0,1-.39-3.51V257h4.35v9.87a8.06,8.06,0,0,0,.88,4.32,3.47,3.47,0,0,0,3.08,1.29c.53,0,1.09,0,1.68-.07a9.59,9.59,0,0,0,1.31-.18V257H155Z"/><path class="cls-1" d="M171.26,265.9a9.14,9.14,0,0,0-.74-4.26,2.88,2.88,0,0,0-2.76-1.32,13.28,13.28,0,0,0-1.58.11c-.58.07-1,.13-1.3.18V275.8h-4.35V257.59a30,30,0,0,1,3.29-.69,28.13,28.13,0,0,1,4.3-.32,8.71,8.71,0,0,1,3.19.5,6.2,6.2,0,0,1,2.07,1.33,8.88,8.88,0,0,1,1-.61,11,11,0,0,1,1.37-.59,12,12,0,0,1,1.6-.45,8.14,8.14,0,0,1,1.71-.18,9,9,0,0,1,3.62.63,5.4,5.4,0,0,1,2.23,1.76,7,7,0,0,1,1.12,2.74,19.14,19.14,0,0,1,.3,3.51V275.8H182v-9.9a9.19,9.19,0,0,0-.72-4.26,2.86,2.86,0,0,0-2.77-1.32,6,6,0,0,0-2,.34,6.34,6.34,0,0,0-1.4.67,9.65,9.65,0,0,1,.39,1.91,18.34,18.34,0,0,1,.11,2.16v10.4h-4.35Z"/><path class="cls-1" d="M205.78,276.34a17.28,17.28,0,0,1-2-.12c-.68-.09-1.33-.2-1.94-.33s-1.17-.27-1.68-.43A7.67,7.67,0,0,1,199,275l.87-3.71a17.24,17.24,0,0,0,2.19.81,12.13,12.13,0,0,0,3.57.45,6.15,6.15,0,0,0,4.1-1.1,4.11,4.11,0,0,0,.77-4.91,3.64,3.64,0,0,0-1.33-1.28,6,6,0,0,0-1.94-.68,13.27,13.27,0,0,0-2.32-.2h-1.48v-3.53h1.8a8.66,8.66,0,0,0,1.67-.16,4.46,4.46,0,0,0,1.53-.58,3.34,3.34,0,0,0,1.12-1.09,3.27,3.27,0,0,0,.43-1.77,3.16,3.16,0,0,0-.32-1.47,3,3,0,0,0-.85-1,3.35,3.35,0,0,0-1.2-.58,5.68,5.68,0,0,0-1.44-.18,7.83,7.83,0,0,0-2.88.49,12.63,12.63,0,0,0-2.24,1.1l-1.58-3.24a12.66,12.66,0,0,1,1.22-.69,14.45,14.45,0,0,1,1.61-.68,11.32,11.32,0,0,1,1.89-.52,10.38,10.38,0,0,1,2.12-.2,11.63,11.63,0,0,1,3.6.5,6.82,6.82,0,0,1,2.5,1.42,6,6,0,0,1,1.48,2.16,7.51,7.51,0,0,1,.48,2.72,5.26,5.26,0,0,1-.95,3.1,6.26,6.26,0,0,1-2.47,2.09,7.1,7.1,0,0,1,3.23,2.26,6.31,6.31,0,0,1,1.27,4.07,8.19,8.19,0,0,1-.57,3.08,6.37,6.37,0,0,1-1.77,2.45,8.75,8.75,0,0,1-3,1.62A14.23,14.23,0,0,1,205.78,276.34Z"/><path class="cls-1" d="M228.42,260.21a10.17,10.17,0,0,1,3.8.63,6.47,6.47,0,0,1,4,4.22,9.71,9.71,0,0,1,.45,3,9.34,9.34,0,0,1-.48,2.88,8,8,0,0,1-1.52,2.68,7.84,7.84,0,0,1-6.24,2.75,7.87,7.87,0,0,1-6.54-2.82q-2.25-2.83-2.25-7.8a17.83,17.83,0,0,1,1.07-6.39,12.73,12.73,0,0,1,3-4.7,12.92,12.92,0,0,1,4.75-2.89,19.22,19.22,0,0,1,6.28-1l.26,3.6a18.1,18.1,0,0,0-3.64.41,10.56,10.56,0,0,0-3,1.17A8,8,0,0,0,226,258a9,9,0,0,0-1.46,3.09A9,9,0,0,1,228.42,260.21Zm-.54,3.46a11.05,11.05,0,0,0-2,.18,7.64,7.64,0,0,0-1.77.54c0,.19,0,.4,0,.63s0,.45,0,.67a17.88,17.88,0,0,0,.2,2.71,7.46,7.46,0,0,0,.68,2.24,3.92,3.92,0,0,0,1.34,1.51,3.73,3.73,0,0,0,2.1.56,3.43,3.43,0,0,0,1.78-.44,3.59,3.59,0,0,0,1.21-1.11,4.85,4.85,0,0,0,.68-1.5,5.81,5.81,0,0,0,.22-1.56,4.75,4.75,0,0,0-1-3.3A4.34,4.34,0,0,0,227.88,263.67Z"/><path class="cls-1" d="M257.91,266.41a13.39,13.39,0,0,1-.56,4,9.23,9.23,0,0,1-1.6,3.09,7.13,7.13,0,0,1-2.61,2,8.43,8.43,0,0,1-3.55.72,8.64,8.64,0,0,1-2.45-.33,8.5,8.5,0,0,1-1.83-.72v7.31H241V257.59c.89-.24,2-.47,3.28-.69a25.53,25.53,0,0,1,4.1-.32,11.15,11.15,0,0,1,4,.68,8.36,8.36,0,0,1,3,2,8.66,8.66,0,0,1,1.91,3.1A11.66,11.66,0,0,1,257.91,266.41Zm-4.47.07a7,7,0,0,0-1.31-4.54,5.14,5.14,0,0,0-4.23-1.62c-.41,0-.83,0-1.28.06a6.54,6.54,0,0,0-1.31.23v10.76a6.42,6.42,0,0,0,1.53.74,5.89,5.89,0,0,0,2,.34,3.91,3.91,0,0,0,3.48-1.62A7.66,7.66,0,0,0,253.44,266.48Z"/><path class="cls-1" d="M268.63,262.74l4-5.77h4.57l-6.32,9q2,2.49,3.8,5a41.78,41.78,0,0,1,3,4.78h-4.74a14.09,14.09,0,0,0-.85-1.45q-.51-.8-1.11-1.65c-.39-.58-.8-1.14-1.23-1.71s-.85-1.09-1.25-1.58a36.2,36.2,0,0,0-2.48,3.24c-.81,1.19-1.47,2.24-2,3.15h-4.44a25.52,25.52,0,0,1,1.31-2.28c.52-.8,1.08-1.62,1.67-2.46s1.2-1.67,1.83-2.5,1.26-1.63,1.87-2.38L259.85,257h4.79Z"/><path class="cls-2" d="M0,301.11H1.94V315H0Z"/><path class="cls-2" d="M5.26,304.88c.43-.11,1-.23,1.7-.35a15.91,15.91,0,0,1,2.44-.18,5.14,5.14,0,0,1,2.06.36,3.26,3.26,0,0,1,1.31,1,3.74,3.74,0,0,1,.69,1.51,9.06,9.06,0,0,1,.2,1.95V315H11.8v-5.45a8.65,8.65,0,0,0-.13-1.64,2.73,2.73,0,0,0-.43-1.09,1.76,1.76,0,0,0-.8-.62A3.67,3.67,0,0,0,9.2,306l-.62,0-.61,0-.52.08-.33.05V315H5.26Z"/><path class="cls-2" d="M18.48,304.57h3.94v1.57H18.48v4.79a5.8,5.8,0,0,0,.12,1.3A1.93,1.93,0,0,0,19,313a1.25,1.25,0,0,0,.6.41,2.39,2.39,0,0,0,.84.13,3.84,3.84,0,0,0,1.35-.2l.71-.26.36,1.54a6.39,6.39,0,0,1-1,.34,5.26,5.26,0,0,1-1.6.21,5.09,5.09,0,0,1-1.75-.26,2.57,2.57,0,0,1-1.11-.82,3.13,3.13,0,0,1-.59-1.33,8.87,8.87,0,0,1-.17-1.82v-9.28l1.86-.33Z"/><path class="cls-2" d="M24,309.8a6.54,6.54,0,0,1,.4-2.41,5,5,0,0,1,1.06-1.71,4.32,4.32,0,0,1,1.52-1,4.87,4.87,0,0,1,1.76-.34A4,4,0,0,1,32,305.63a6,6,0,0,1,1.12,4v.32c0,.12,0,.24,0,.34H25.94a3.77,3.77,0,0,0,.94,2.46,3.41,3.41,0,0,0,2.56.84,6.54,6.54,0,0,0,1.65-.17,5.4,5.4,0,0,0,1-.33l.26,1.57a5.94,5.94,0,0,1-1.19.38,8.67,8.67,0,0,1-1.93.2,6.17,6.17,0,0,1-2.35-.41,4.62,4.62,0,0,1-1.63-1.13,4.69,4.69,0,0,1-1-1.71A7.16,7.16,0,0,1,24,309.8Zm7.14-1a3.11,3.11,0,0,0-.63-2.06,2.17,2.17,0,0,0-1.79-.82,2.54,2.54,0,0,0-1.13.25,2.69,2.69,0,0,0-.83.66,2.88,2.88,0,0,0-.53.92,4.34,4.34,0,0,0-.25,1Z"/><path class="cls-2" d="M39.6,304.35a3.84,3.84,0,0,1,.55,0,4.07,4.07,0,0,1,.61.08l.55.09.37.09-.32,1.62a7,7,0,0,0-.73-.18,6,6,0,0,0-1.31-.11,4.45,4.45,0,0,0-1,.11l-.67.14V315H35.76V305a12.65,12.65,0,0,1,1.64-.46A11.26,11.26,0,0,1,39.6,304.35Z"/><path class="cls-2" d="M46.6,315.18a3.56,3.56,0,0,1-2.44-.75,2.9,2.9,0,0,1-.72-2.17V299.77l1.86-.31V312a3.22,3.22,0,0,0,.08.76,1,1,0,0,0,.26.47,1.24,1.24,0,0,0,.48.28,7.07,7.07,0,0,0,.74.14Z"/><path class="cls-2" d="M49.86,302.69a1.16,1.16,0,0,1-1.2-1.21,1.17,1.17,0,0,1,.35-.89,1.26,1.26,0,0,1,1.7,0,1.29,1.29,0,0,1,0,1.77A1.15,1.15,0,0,1,49.86,302.69ZM50.8,315H48.94V304.57H50.8Z"/><path class="cls-2" d="M54,304.88c.42-.11,1-.23,1.7-.35a15.91,15.91,0,0,1,2.44-.18,5.17,5.17,0,0,1,2.06.36,3.26,3.26,0,0,1,1.31,1,3.88,3.88,0,0,1,.69,1.51,9.06,9.06,0,0,1,.2,1.95V315H60.54v-5.45a8.65,8.65,0,0,0-.13-1.64A2.73,2.73,0,0,0,60,306.8a1.76,1.76,0,0,0-.8-.62,3.72,3.72,0,0,0-1.24-.19l-.62,0-.61,0-.52.08-.33.05V315H54Z"/><path class="cls-2" d="M64.9,309.8a6.54,6.54,0,0,1,.4-2.41,4.87,4.87,0,0,1,1.06-1.71,4.23,4.23,0,0,1,1.52-1,4.87,4.87,0,0,1,1.76-.34,4,4,0,0,1,3.22,1.32,6,6,0,0,1,1.12,4v.32c0,.12,0,.24,0,.34H66.84a3.77,3.77,0,0,0,.94,2.46,3.39,3.39,0,0,0,2.56.84A6.54,6.54,0,0,0,72,313.4a5.67,5.67,0,0,0,1-.33l.26,1.57a6.18,6.18,0,0,1-1.19.38,8.67,8.67,0,0,1-1.93.2,6.17,6.17,0,0,1-2.35-.41A4.34,4.34,0,0,1,65.21,312,7.16,7.16,0,0,1,64.9,309.8Zm7.14-1a3.11,3.11,0,0,0-.63-2.06,2.19,2.19,0,0,0-1.79-.82,2.51,2.51,0,0,0-1.13.25,2.58,2.58,0,0,0-.83.66,2.71,2.71,0,0,0-.53.92,4.34,4.34,0,0,0-.25,1Z"/><path class="cls-2" d="M80,304.31a5.52,5.52,0,0,1,1.89.29,3.15,3.15,0,0,1,1.24.83,3.21,3.21,0,0,1,.67,1.25,6.3,6.3,0,0,1,.2,1.62v6.5l-.67.1c-.29.05-.61.09-1,.13l-1.17.11c-.42,0-.84.05-1.25.05a6.83,6.83,0,0,1-1.62-.17,3.58,3.58,0,0,1-1.28-.58,2.63,2.63,0,0,1-.84-1,3.62,3.62,0,0,1-.3-1.54,2.93,2.93,0,0,1,.35-1.49,2.84,2.84,0,0,1,1-1,4.4,4.4,0,0,1,1.4-.55,7.58,7.58,0,0,1,1.68-.19l.58,0c.2,0,.39.05.57.09l.47.08.28.07v-.53a4.7,4.7,0,0,0-.1-.91,2.24,2.24,0,0,0-.36-.8,1.88,1.88,0,0,0-.71-.55,2.64,2.64,0,0,0-1.17-.21,8.45,8.45,0,0,0-1.61.13,5.36,5.36,0,0,0-1,.26L77,304.77a5.65,5.65,0,0,1,1.2-.3A9.41,9.41,0,0,1,80,304.31Zm.16,9.33c.44,0,.83,0,1.17,0a3.82,3.82,0,0,0,.85-.11v-3.1a2.53,2.53,0,0,0-.65-.16,6.76,6.76,0,0,0-1.09-.08,7.08,7.08,0,0,0-.89.07,2.61,2.61,0,0,0-.86.25,1.82,1.82,0,0,0-.65.51,1.35,1.35,0,0,0-.26.87,1.48,1.48,0,0,0,.64,1.39A3.2,3.2,0,0,0,80.18,313.64Z"/><path class="cls-2" d="M93.82,299.77l1.86-.31v15.22A16.07,16.07,0,0,1,94,315a13.11,13.11,0,0,1-2.3.19,5.9,5.9,0,0,1-2.16-.38,4.78,4.78,0,0,1-1.64-1.08,4.65,4.65,0,0,1-1-1.71,6.57,6.57,0,0,1-.37-2.28,7.36,7.36,0,0,1,.31-2.2,5,5,0,0,1,.91-1.72,4.3,4.3,0,0,1,1.47-1.12,4.81,4.81,0,0,1,2-.39,5.12,5.12,0,0,1,1.59.23,5.51,5.51,0,0,1,1,.46Zm0,7a4.51,4.51,0,0,0-1-.54,3.78,3.78,0,0,0-1.4-.25,2.89,2.89,0,0,0-1.37.29,2.55,2.55,0,0,0-.93.79,3.31,3.31,0,0,0-.52,1.21,6.57,6.57,0,0,0-.16,1.5,4,4,0,0,0,.9,2.82,3.11,3.11,0,0,0,2.4,1,11.25,11.25,0,0,0,1.27-.06,5.38,5.38,0,0,0,.79-.16Z"/><path class="cls-2" d="M108.06,309.77a6.64,6.64,0,0,1-.36,2.25,5.1,5.1,0,0,1-1,1.71,4.4,4.4,0,0,1-1.55,1.12,5.24,5.24,0,0,1-3.92,0,4.32,4.32,0,0,1-1.55-1.12,4.94,4.94,0,0,1-1-1.71,6.64,6.64,0,0,1-.36-2.25,6.54,6.54,0,0,1,.36-2.22,5.08,5.08,0,0,1,1-1.74,4.52,4.52,0,0,1,1.55-1.1,5,5,0,0,1,3.92,0,4.61,4.61,0,0,1,1.55,1.1,5.24,5.24,0,0,1,1,1.74A6.54,6.54,0,0,1,108.06,309.77Zm-1.94,0a4.53,4.53,0,0,0-.79-2.79,2.78,2.78,0,0,0-4.3,0,5.32,5.32,0,0,0,0,5.58,2.74,2.74,0,0,0,4.3,0A4.49,4.49,0,0,0,106.12,309.77Z"/><path class="cls-2" d="M114.5,310.18a19.9,19.9,0,0,1,1-2.05c.44-.78.93-1.59,1.49-2.41s1.14-1.65,1.78-2.45a27.65,27.65,0,0,1,1.91-2.16h1.78v8.81h1.64v1.51H122.5V315h-1.8v-3.55h-6.2Zm6.2-6.87c-.4.43-.81.91-1.21,1.43s-.81,1.08-1.19,1.65-.75,1.17-1.09,1.76-.65,1.19-.91,1.77h4.4Z"/><path class="cls-2" d="M129.5,313.61a3.81,3.81,0,0,0,2.55-.69,2.45,2.45,0,0,0,.77-1.89,2.39,2.39,0,0,0-.32-1.27,2.47,2.47,0,0,0-.84-.83,3.71,3.71,0,0,0-1.21-.45,8.22,8.22,0,0,0-1.41-.13h-.48v-1.51h.66a5.39,5.39,0,0,0,1-.11,3,3,0,0,0,1-.35,2,2,0,0,0,1-1.85,2.19,2.19,0,0,0-.2-1,2,2,0,0,0-.53-.65,1.93,1.93,0,0,0-.76-.37,3.39,3.39,0,0,0-.91-.12,4.13,4.13,0,0,0-1.63.29,6.21,6.21,0,0,0-1.13.58l-.72-1.42a5.82,5.82,0,0,1,.61-.36,6,6,0,0,1,.83-.34,7.8,7.8,0,0,1,1-.28,5.66,5.66,0,0,1,1.11-.1,6.32,6.32,0,0,1,1.9.26,3.7,3.7,0,0,1,1.32.76,3.39,3.39,0,0,1,.78,1.16,4.1,4.1,0,0,1,.26,1.45,2.87,2.87,0,0,1-.62,1.85,4.16,4.16,0,0,1-1.5,1.18,4.35,4.35,0,0,1,1,.46,3.14,3.14,0,0,1,.87.76,4.29,4.29,0,0,1,.6,1.05,3.85,3.85,0,0,1,.23,1.34,4.51,4.51,0,0,1-.31,1.67,3.42,3.42,0,0,1-1,1.33,4.81,4.81,0,0,1-1.63.89,7.67,7.67,0,0,1-2.32.31,6.51,6.51,0,0,1-1.07-.08,9.41,9.41,0,0,1-1-.2,8.19,8.19,0,0,1-.84-.23,4.48,4.48,0,0,1-.52-.2l.36-1.63a9,9,0,0,0,1.13.42A6,6,0,0,0,129.5,313.61Z"/><path class="cls-2" d="M151.64,309.8a7.6,7.6,0,0,1-.31,2.18,4.91,4.91,0,0,1-.91,1.71,4,4,0,0,1-1.47,1.12,4.69,4.69,0,0,1-2,.41,4.83,4.83,0,0,1-1.59-.24,5.89,5.89,0,0,1-1-.46v4.16h-1.86V304.89c.44-.1,1-.22,1.65-.34a11.9,11.9,0,0,1,2.29-.2,5.9,5.9,0,0,1,2.16.38,4.57,4.57,0,0,1,2.69,2.79A6.81,6.81,0,0,1,151.64,309.8Zm-1.94,0a4,4,0,0,0-.9-2.81,3.11,3.11,0,0,0-2.4-1,11.35,11.35,0,0,0-1.31.05,4.08,4.08,0,0,0-.75.15v6.55a3.49,3.49,0,0,0,1,.54,3.53,3.53,0,0,0,1.4.26,2.92,2.92,0,0,0,1.37-.29,2.49,2.49,0,0,0,.93-.8,3.44,3.44,0,0,0,.52-1.2A6.92,6.92,0,0,0,149.7,309.8Z"/><path class="cls-2" d="M160.14,315q-.22-.45-.54-1c-.22-.35-.45-.72-.7-1.1l-.78-1.13-.78-1.07c-.26.34-.51.7-.78,1.08s-.52.75-.77,1.13-.48.75-.69,1.12-.39.67-.54,1h-1.92a22.9,22.9,0,0,1,1.67-2.77c.65-.94,1.29-1.84,1.93-2.69l-3.44-4.95h2.1l2.48,3.65,2.5-3.65h2l-3.36,4.82c.64.87,1.29,1.79,2,2.75a25.17,25.17,0,0,1,1.71,2.84Z"/><path class="cls-1" d="M8.54,360.34h2.52V374.2H8.54v-6.14h-6v6.14H0V360.34H2.52v5.54h6Z"/><path class="cls-1" d="M21.82,360.34v8.56h1.56v2H21.82v3.32H19.46v-3.32H13.38v-1.72a21.8,21.8,0,0,1,1.07-2c.45-.76.94-1.54,1.49-2.34s1.13-1.59,1.74-2.36a24.64,24.64,0,0,1,1.84-2.1Zm-2.36,3c-.32.38-.65.8-1,1.24s-.67.89-1,1.38-.63,1-.92,1.47-.56,1-.8,1.49h3.7Z"/><path class="cls-1" d="M34.22,360.2a8,8,0,0,1,4.59,1.1,4.15,4.15,0,0,1-1.19,7.18c.25.3.54.68.86,1.12s.65.91,1,1.43.65,1,1,1.58.58,1.07.82,1.59H38.42c-.25-.48-.53-1-.82-1.45s-.59-1-.89-1.42-.6-.9-.89-1.3-.57-.77-.82-1.09H32.92v5.25H30.4V360.54a11.88,11.88,0,0,1,2-.27C33.05,360.22,33.67,360.2,34.22,360.2Zm.18,2.18c-.53,0-1,0-1.48.06v4.48H34a12.78,12.78,0,0,0,1.62-.1,3.29,3.29,0,0,0,1.17-.37,1.75,1.75,0,0,0,.71-.69,2.35,2.35,0,0,0,.24-1.12,2.21,2.21,0,0,0-.24-1.08,1.72,1.72,0,0,0-.69-.7,3.07,3.07,0,0,0-1.07-.37A7.2,7.2,0,0,0,34.4,362.38Z"/><path class="cls-1" d="M42.5,369a6.63,6.63,0,0,1,.41-2.42A5,5,0,0,1,44,364.87a4.41,4.41,0,0,1,1.56-1,4.73,4.73,0,0,1,1.8-.35,4.29,4.29,0,0,1,3.37,1.34,5.76,5.76,0,0,1,1.21,4c0,.13,0,.28,0,.45s0,.31,0,.45H45a2.78,2.78,0,0,0,.89,1.95,3.39,3.39,0,0,0,2.29.69,8,8,0,0,0,1.61-.16,6.84,6.84,0,0,0,1.15-.34l.32,2c-.13.06-.32.13-.55.21s-.5.14-.8.2-.62.11-1,.15a9.29,9.29,0,0,1-1.06.05,6.49,6.49,0,0,1-2.4-.4,4.43,4.43,0,0,1-2.66-2.86A7.16,7.16,0,0,1,42.5,369Zm7-1.08a3.26,3.26,0,0,0-.14-.95,2.38,2.38,0,0,0-.41-.79,2,2,0,0,0-.66-.51,2.06,2.06,0,0,0-.93-.19,2.06,2.06,0,0,0-1.69.76,2.49,2.49,0,0,0-.45.78,4,4,0,0,0-.22.9Z"/><path class="cls-1" d="M63.14,373.14a4.74,4.74,0,0,1-1.27,3.66A5.63,5.63,0,0,1,58,378a11.51,11.51,0,0,1-1.87-.15,11,11,0,0,1-1.65-.42l.44-2.06a7.86,7.86,0,0,0,1.41.42,9.2,9.2,0,0,0,1.71.16,2.94,2.94,0,0,0,2.08-.6,2.39,2.39,0,0,0,.62-1.78v-.4a6.41,6.41,0,0,1-.95.36,4.6,4.6,0,0,1-1.35.18,5.09,5.09,0,0,1-1.83-.32,4,4,0,0,1-1.42-.94,4.4,4.4,0,0,1-.92-1.55,6.43,6.43,0,0,1-.33-2.15,6.17,6.17,0,0,1,.35-2.1,4.42,4.42,0,0,1,1-1.65,4.67,4.67,0,0,1,1.63-1.05,5.76,5.76,0,0,1,2.18-.38,13.37,13.37,0,0,1,2.24.18,17.24,17.24,0,0,1,1.8.38ZM56.4,368.7a3.2,3.2,0,0,0,.67,2.25,2.28,2.28,0,0,0,1.73.71,3.83,3.83,0,0,0,1.09-.16,3.4,3.4,0,0,0,.83-.38V365.7a6,6,0,0,0-.64-.11,6.46,6.46,0,0,0-1,0,2.45,2.45,0,0,0-2,.87A3.52,3.52,0,0,0,56.4,368.7Z"/><path class="cls-1" d="M74.8,373.88c-.47.12-1.07.24-1.82.37a15.56,15.56,0,0,1-2.46.19,5.44,5.44,0,0,1-2.11-.36,3.43,3.43,0,0,1-1.36-1,3.89,3.89,0,0,1-.73-1.53,8,8,0,0,1-.22-1.95v-5.86h2.42v5.48a4.39,4.39,0,0,0,.49,2.4,1.91,1.91,0,0,0,1.71.72c.29,0,.6,0,.93,0a5.34,5.34,0,0,0,.73-.1v-8.46H74.8Z"/><path class="cls-1" d="M81.52,374.4a7.11,7.11,0,0,1-1.79-.24,2.85,2.85,0,0,1-1.13-.63,2.27,2.27,0,0,1-.59-1,5.34,5.34,0,0,1-.17-1.39v-12l2.42-.4v12a3.15,3.15,0,0,0,.07.74,1.22,1.22,0,0,0,.25.51,1.16,1.16,0,0,0,.49.32,4.12,4.12,0,0,0,.79.17Z"/><path class="cls-1" d="M87.3,363.48a5.93,5.93,0,0,1,2,.3,3.23,3.23,0,0,1,1.31.84,3.07,3.07,0,0,1,.7,1.31,6.36,6.36,0,0,1,.21,1.69V374c-.37.09-.94.18-1.69.3a17.76,17.76,0,0,1-2.55.17,7.63,7.63,0,0,1-1.72-.18,3.76,3.76,0,0,1-1.33-.58,2.72,2.72,0,0,1-.86-1,3.59,3.59,0,0,1-.31-1.58,3.08,3.08,0,0,1,.35-1.52,2.79,2.79,0,0,1,.95-1,4,4,0,0,1,1.39-.56,7.33,7.33,0,0,1,1.65-.17,6.28,6.28,0,0,1,.84.05,7.23,7.23,0,0,1,.94.17v-.4a3,3,0,0,0-.1-.8,1.6,1.6,0,0,0-.35-.67,1.56,1.56,0,0,0-.66-.45,2.82,2.82,0,0,0-1-.16,9.17,9.17,0,0,0-1.54.12,6.31,6.31,0,0,0-1.14.28l-.3-2a9.43,9.43,0,0,1,1.34-.31A10.13,10.13,0,0,1,87.3,363.48Zm.2,9a9.94,9.94,0,0,0,1.7-.12V369.7a5.15,5.15,0,0,0-.58-.12,5.44,5.44,0,0,0-.84-.06,5.52,5.52,0,0,0-.81.06,2.46,2.46,0,0,0-.74.22,1.22,1.22,0,0,0-.53.45,1.19,1.19,0,0,0-.2.73,1.28,1.28,0,0,0,.54,1.19A2.77,2.77,0,0,0,87.5,372.5Z"/><path class="cls-1" d="M100.46,365.92a8.41,8.41,0,0,0-.83-.22,6.51,6.51,0,0,0-1.23-.1,4.27,4.27,0,0,0-.85.08,4.54,4.54,0,0,0-.63.14v8.38H94.5v-10a11.68,11.68,0,0,1,1.75-.49,10.46,10.46,0,0,1,2.33-.23l.56,0c.21,0,.42,0,.64.08a6.18,6.18,0,0,1,.62.12,3.89,3.89,0,0,1,.48.13Z"/><path class="cls-1" d="M115.3,363.94a3.5,3.5,0,0,1-.3,1.41,7.58,7.58,0,0,1-.77,1.34,12.33,12.33,0,0,1-1.07,1.26l-1.2,1.19q-.33.3-.72.72c-.27.28-.52.56-.76.84a8,8,0,0,0-.62.81,1.34,1.34,0,0,0-.28.65h6.16v2h-8.82a2.3,2.3,0,0,1,0-.39v-.36a4.83,4.83,0,0,1,.31-1.76,6.1,6.1,0,0,1,.81-1.51,9.32,9.32,0,0,1,1.12-1.32c.41-.42.82-.82,1.24-1.22l.92-.9a11.48,11.48,0,0,0,.77-.87,4.78,4.78,0,0,0,.53-.88,2.32,2.32,0,0,0,.2-.93,1.7,1.7,0,0,0-.6-1.48,2.36,2.36,0,0,0-1.46-.44,3.15,3.15,0,0,0-1,.16,4.66,4.66,0,0,0-1.5.83,3.58,3.58,0,0,0-.42.37l-1.2-1.7a6.35,6.35,0,0,1,2-1.29A6,6,0,0,1,111,360a4.46,4.46,0,0,1,3.27,1.05A3.87,3.87,0,0,1,115.3,363.94Z"/><path class="cls-1" d="M127.54,367.26a9.51,9.51,0,0,1-1.28,5.37,4.29,4.29,0,0,1-7.08,0,9.43,9.43,0,0,1-1.28-5.37,13.07,13.07,0,0,1,.33-3.09,6.85,6.85,0,0,1,1-2.27,4.22,4.22,0,0,1,1.52-1.4,4.15,4.15,0,0,1,2-.48,4.07,4.07,0,0,1,3.54,1.87A9.47,9.47,0,0,1,127.54,367.26Zm-2.5,0a15.91,15.91,0,0,0-.12-2,6.84,6.84,0,0,0-.39-1.63,2.83,2.83,0,0,0-.71-1.09,1.57,1.57,0,0,0-1.1-.4,1.59,1.59,0,0,0-1.11.4,2.73,2.73,0,0,0-.72,1.09,6.41,6.41,0,0,0-.38,1.63,18.6,18.6,0,0,0,0,4,6.51,6.51,0,0,0,.38,1.63,2.81,2.81,0,0,0,.72,1.09,1.64,1.64,0,0,0,1.11.4,1.62,1.62,0,0,0,1.1-.4,2.91,2.91,0,0,0,.71-1.09,7,7,0,0,0,.39-1.63A16,16,0,0,0,125,367.26Z"/><path class="cls-1" d="M139.36,369a7.64,7.64,0,0,1-.31,2.2,5.39,5.39,0,0,1-.89,1.72,4,4,0,0,1-1.45,1.12,5.12,5.12,0,0,1-3.33.22,5.16,5.16,0,0,1-1-.4v4.06h-2.42V364.08a17.18,17.18,0,0,1,1.82-.38,13.86,13.86,0,0,1,2.28-.18,6,6,0,0,1,2.22.38,4.53,4.53,0,0,1,1.67,1.09A4.8,4.8,0,0,1,139,366.7,6.81,6.81,0,0,1,139.36,369Zm-2.48,0a3.94,3.94,0,0,0-.73-2.52,2.86,2.86,0,0,0-2.35-.9l-.71,0a3.6,3.6,0,0,0-.73.13v6a4,4,0,0,0,.85.41,3.48,3.48,0,0,0,1.13.19,2.17,2.17,0,0,0,1.93-.9A4.31,4.31,0,0,0,136.88,369Z"/><path class="cls-1" d="M145.31,366.94l2.23-3.2h2.54l-3.51,5c.73.92,1.43,1.85,2.11,2.79a23.9,23.9,0,0,1,1.66,2.66H147.7a7.21,7.21,0,0,0-.47-.81c-.19-.3-.4-.6-.61-.92s-.45-.63-.69-1l-.69-.88a20.91,20.91,0,0,0-1.38,1.81c-.45.65-.82,1.24-1.11,1.75h-2.47a10,10,0,0,1,.73-1.27c.28-.45.59-.9.92-1.37s.67-.92,1-1.39.7-.9,1-1.32l-3.55-5.11h2.66Z"/><path class="cls-2" d="M.06,399.61H2v13.86H.06Z"/><path class="cls-2" d="M5.32,403.37c.43-.1,1-.22,1.7-.34a14.74,14.74,0,0,1,2.44-.18,5.33,5.33,0,0,1,2.06.35,3.28,3.28,0,0,1,1.31,1,3.74,3.74,0,0,1,.69,1.51,9,9,0,0,1,.2,1.94v5.84H11.86V408a8.65,8.65,0,0,0-.13-1.64,2.84,2.84,0,0,0-.43-1.1,1.74,1.74,0,0,0-.8-.61,3.67,3.67,0,0,0-1.24-.19l-.62,0-.61.05-.52.07-.33.06v8.78H5.32Z"/><path class="cls-2" d="M18.54,403.07h3.94v1.56H18.54v4.8a5.77,5.77,0,0,0,.12,1.29,1.92,1.92,0,0,0,.36.8,1.25,1.25,0,0,0,.6.41,2.66,2.66,0,0,0,.84.12,3.87,3.87,0,0,0,1.35-.19c.34-.12.58-.21.71-.27l.36,1.54a6.14,6.14,0,0,1-1,.35,5.59,5.59,0,0,1-1.6.21,4.84,4.84,0,0,1-1.75-.27,2.55,2.55,0,0,1-1.11-.81,3.18,3.18,0,0,1-.59-1.33,8.9,8.9,0,0,1-.17-1.83v-9.28l1.86-.32Z"/><path class="cls-2" d="M24.06,408.29a6.58,6.58,0,0,1,.4-2.41,5.22,5.22,0,0,1,1.06-1.71,4.43,4.43,0,0,1,1.52-1,4.87,4.87,0,0,1,1.76-.34A4,4,0,0,1,32,404.12a6,6,0,0,1,1.12,4v.31a3.49,3.49,0,0,1,0,.35H26a3.79,3.79,0,0,0,.94,2.46,3.45,3.45,0,0,0,2.56.84,6.54,6.54,0,0,0,1.65-.17,5.4,5.4,0,0,0,1-.33l.26,1.56a5.35,5.35,0,0,1-1.19.38,8.12,8.12,0,0,1-1.93.2A6,6,0,0,1,27,413.3a4.37,4.37,0,0,1-1.63-1.13,4.61,4.61,0,0,1-.95-1.71A7.11,7.11,0,0,1,24.06,408.29Zm7.14-1a3.16,3.16,0,0,0-.63-2.07,2.16,2.16,0,0,0-1.79-.81,2.54,2.54,0,0,0-1.13.25,2.82,2.82,0,0,0-.83.65,3.11,3.11,0,0,0-.53.92,4.41,4.41,0,0,0-.25,1.06Z"/><path class="cls-2" d="M39.66,402.85l.55,0,.61.08.55.1.37.09-.32,1.62c-.15,0-.39-.11-.73-.19a6.67,6.67,0,0,0-1.31-.11,5.07,5.07,0,0,0-1,.11l-.67.15v8.74H35.82v-10a12.8,12.8,0,0,1,1.64-.45A10.54,10.54,0,0,1,39.66,402.85Z"/><path class="cls-2" d="M46.66,413.67a3.51,3.51,0,0,1-2.44-.74,2.91,2.91,0,0,1-.72-2.18V398.27l1.86-.32v12.5a2.72,2.72,0,0,0,.08.76,1,1,0,0,0,.26.48,1.12,1.12,0,0,0,.48.27,4.78,4.78,0,0,0,.74.15Z"/><path class="cls-2" d="M49.92,401.19a1.18,1.18,0,0,1-.85-.33,1.13,1.13,0,0,1-.35-.89,1.15,1.15,0,0,1,.35-.89,1.18,1.18,0,0,1,.85-.33,1.16,1.16,0,0,1,1.2,1.22,1.17,1.17,0,0,1-.35.89A1.19,1.19,0,0,1,49.92,401.19Zm.94,12.28H49v-10.4h1.86Z"/><path class="cls-2" d="M54.06,403.37c.42-.1,1-.22,1.7-.34a14.65,14.65,0,0,1,2.44-.18,5.37,5.37,0,0,1,2.06.35,3.35,3.35,0,0,1,1.31,1,4,4,0,0,1,.69,1.51,9,9,0,0,1,.2,1.94v5.84H60.6V408a9.56,9.56,0,0,0-.13-1.64,2.84,2.84,0,0,0-.43-1.1,1.74,1.74,0,0,0-.8-.61,3.72,3.72,0,0,0-1.24-.19l-.62,0-.61.05-.52.07-.33.06v8.78H54.06Z"/><path class="cls-2" d="M65,408.29a6.58,6.58,0,0,1,.4-2.41,5.06,5.06,0,0,1,1.06-1.71,4.33,4.33,0,0,1,1.52-1,4.87,4.87,0,0,1,1.76-.34,4,4,0,0,1,3.22,1.31,6.09,6.09,0,0,1,1.12,4v.31a3.49,3.49,0,0,1,0,.35H66.9a3.79,3.79,0,0,0,.94,2.46,3.43,3.43,0,0,0,2.56.84,6.54,6.54,0,0,0,1.65-.17,5.67,5.67,0,0,0,1-.33l.26,1.56a5.54,5.54,0,0,1-1.19.38,8.12,8.12,0,0,1-1.93.2,6,6,0,0,1-2.35-.41,4.29,4.29,0,0,1-1.63-1.13,4.47,4.47,0,0,1-1-1.71A7.11,7.11,0,0,1,65,408.29Zm7.14-1a3.16,3.16,0,0,0-.63-2.07,2.18,2.18,0,0,0-1.79-.81,2.51,2.51,0,0,0-1.13.25,2.7,2.7,0,0,0-.83.65,2.91,2.91,0,0,0-.53.92,4.41,4.41,0,0,0-.25,1.06Z"/><path class="cls-2" d="M80.08,402.81a5.52,5.52,0,0,1,1.89.29,3.24,3.24,0,0,1,1.24.82,3.33,3.33,0,0,1,.67,1.26,6.28,6.28,0,0,1,.2,1.61v6.5l-.67.11c-.29.05-.61.09-1,.13l-1.17.11c-.42,0-.84.05-1.25.05a6.81,6.81,0,0,1-1.62-.18,3.57,3.57,0,0,1-1.28-.57,2.59,2.59,0,0,1-.84-1,3.58,3.58,0,0,1-.3-1.54,2.92,2.92,0,0,1,.35-1.48,2.84,2.84,0,0,1,1-1,4.41,4.41,0,0,1,1.4-.56,7.59,7.59,0,0,1,1.68-.18l.58,0,.57.08.47.09.28.06v-.52a4.7,4.7,0,0,0-.1-.91,2.24,2.24,0,0,0-.36-.8,1.91,1.91,0,0,0-.71-.56,2.78,2.78,0,0,0-1.17-.21,9.36,9.36,0,0,0-1.61.13,6.06,6.06,0,0,0-1,.27l-.22-1.54a6.19,6.19,0,0,1,1.2-.31A10.31,10.31,0,0,1,80.08,402.81Zm.16,9.32q.66,0,1.17,0a4.53,4.53,0,0,0,.85-.11v-3.1a2.92,2.92,0,0,0-.65-.17,8.31,8.31,0,0,0-1.09-.07,7,7,0,0,0-.89.06,2.87,2.87,0,0,0-.86.25,1.85,1.85,0,0,0-.65.52,1.33,1.33,0,0,0-.26.87,1.48,1.48,0,0,0,.64,1.39A3.3,3.3,0,0,0,80.24,412.13Z"/><path class="cls-2" d="M93.88,398.27l1.86-.32v15.22c-.43.12-1,.24-1.64.36a13.17,13.17,0,0,1-2.3.18,5.69,5.69,0,0,1-2.16-.38A4.57,4.57,0,0,1,87,410.54a6.47,6.47,0,0,1-.37-2.27,7.31,7.31,0,0,1,.31-2.2,4.88,4.88,0,0,1,.91-1.72,4.17,4.17,0,0,1,1.47-1.12,5.25,5.25,0,0,1,3.58-.16,5.51,5.51,0,0,1,1,.46Zm0,7a4.51,4.51,0,0,0-1-.54,3.79,3.79,0,0,0-1.4-.26,3,3,0,0,0-1.37.29,2.58,2.58,0,0,0-.93.8,3.31,3.31,0,0,0-.52,1.21,6.57,6.57,0,0,0-.16,1.5,4,4,0,0,0,.9,2.81,3.09,3.09,0,0,0,2.4,1,9.11,9.11,0,0,0,1.27-.07,4.45,4.45,0,0,0,.79-.15Z"/><path class="cls-2" d="M108.12,408.27a6.54,6.54,0,0,1-.36,2.24,5.15,5.15,0,0,1-1,1.72,4.5,4.5,0,0,1-1.55,1.11,5.12,5.12,0,0,1-3.92,0,4.41,4.41,0,0,1-1.55-1.11,5,5,0,0,1-1-1.72,6.54,6.54,0,0,1-.36-2.24,6.64,6.64,0,0,1,.36-2.23,5,5,0,0,1,1-1.73,4.41,4.41,0,0,1,1.55-1.11,5.12,5.12,0,0,1,3.92,0,4.5,4.5,0,0,1,1.55,1.11,5.19,5.19,0,0,1,1,1.73A6.64,6.64,0,0,1,108.12,408.27Zm-1.94,0a4.53,4.53,0,0,0-.79-2.79,2.6,2.6,0,0,0-2.15-1,2.57,2.57,0,0,0-2.15,1,5.32,5.32,0,0,0,0,5.58,2.76,2.76,0,0,0,4.3,0A4.49,4.49,0,0,0,106.18,408.27Z"/><path class="cls-2" d="M123.1,403.15a3.5,3.5,0,0,1-.29,1.39,6.86,6.86,0,0,1-.77,1.32,12.64,12.64,0,0,1-1.08,1.28q-.6.63-1.2,1.23l-.79.8a12.69,12.69,0,0,0-.85,1,9,9,0,0,0-.67,1,1.68,1.68,0,0,0-.27.8h6.38v1.58h-8.4a1,1,0,0,1,0-.24V413a4.81,4.81,0,0,1,.31-1.75,6.61,6.61,0,0,1,.81-1.53,10.24,10.24,0,0,1,1.12-1.36l1.22-1.24c.33-.32.65-.63,1-.95a9.74,9.74,0,0,0,.8-.94,4.52,4.52,0,0,0,.56-1,2.67,2.67,0,0,0,.21-1.06,2.58,2.58,0,0,0-.19-1,2.15,2.15,0,0,0-.51-.7,2.28,2.28,0,0,0-.75-.41,3.39,3.39,0,0,0-.91-.13,3.52,3.52,0,0,0-1.06.16,5.29,5.29,0,0,0-.86.37,3.39,3.39,0,0,0-.64.44l-.4.35-.92-1.32a6,6,0,0,1,.54-.49,5.57,5.57,0,0,1,.86-.55,6.08,6.08,0,0,1,1.12-.44,4.77,4.77,0,0,1,1.34-.18,4.69,4.69,0,0,1,3.27,1A3.74,3.74,0,0,1,123.1,403.15Z"/><path class="cls-2" d="M125.84,408.67a22.16,22.16,0,0,1,1-2.05c.44-.78.93-1.58,1.49-2.41s1.14-1.64,1.78-2.44a24.42,24.42,0,0,1,1.91-2.16h1.78v8.8h1.64v1.52h-1.64v3.54H132v-3.54h-6.2Zm6.2-6.86c-.4.43-.81.91-1.21,1.43s-.81,1.08-1.19,1.65-.75,1.16-1.09,1.76-.65,1.19-.91,1.76H132Z"/><path class="cls-2" d="M147.08,408.29a7.5,7.5,0,0,1-.31,2.18,5,5,0,0,1-.91,1.72,4.06,4.06,0,0,1-1.47,1.12,4.68,4.68,0,0,1-2,.4,4.83,4.83,0,0,1-1.59-.24,4.69,4.69,0,0,1-1-.46v4.16h-1.86V403.39l1.65-.35a12.82,12.82,0,0,1,2.29-.19,5.9,5.9,0,0,1,2.16.38,4.57,4.57,0,0,1,2.69,2.79A6.75,6.75,0,0,1,147.08,408.29Zm-1.94,0a4,4,0,0,0-.9-2.8,3.11,3.11,0,0,0-2.4-1,10.94,10.94,0,0,0-1.31.06,5.37,5.37,0,0,0-.75.14v6.56a3.49,3.49,0,0,0,1,.54,3.53,3.53,0,0,0,1.4.26,2.92,2.92,0,0,0,1.37-.29,2.49,2.49,0,0,0,.93-.8,3.44,3.44,0,0,0,.52-1.2A7,7,0,0,0,145.14,408.29Z"/><path class="cls-2" d="M155.58,413.47c-.15-.29-.33-.62-.54-1s-.45-.73-.7-1.11l-.78-1.13-.78-1.06c-.26.34-.52.69-.78,1.07s-.53.76-.77,1.14-.48.75-.69,1.11-.4.68-.54,1h-1.92a24.55,24.55,0,0,1,1.67-2.77c.64-.94,1.29-1.83,1.93-2.69l-3.44-4.94h2.1l2.48,3.64,2.5-3.64h2l-3.36,4.82c.64.87,1.29,1.79,2,2.75a25.08,25.08,0,0,1,1.71,2.83Z"/><path class="cls-2" d="M0,190.31H1.94v13.86H0Z"/><path class="cls-2" d="M5.26,194.07c.43-.11,1-.22,1.7-.34a14.74,14.74,0,0,1,2.44-.18,5.15,5.15,0,0,1,2.06.35,3.19,3.19,0,0,1,1.31,1,3.68,3.68,0,0,1,.69,1.51,8.9,8.9,0,0,1,.2,1.94v5.84H11.8v-5.44a8.57,8.57,0,0,0-.13-1.64,2.78,2.78,0,0,0-.43-1.1,1.68,1.68,0,0,0-.8-.61,3.43,3.43,0,0,0-1.24-.2l-.62,0-.61,0-.52.07-.33.06v8.78H5.26Z"/><path class="cls-2" d="M18.48,193.77h3.94v1.56H18.48v4.8a5.77,5.77,0,0,0,.12,1.29,2,2,0,0,0,.36.8,1.32,1.32,0,0,0,.6.41,2.66,2.66,0,0,0,.84.12,4.12,4.12,0,0,0,1.35-.19l.71-.27.36,1.54a7.36,7.36,0,0,1-1,.35,5.59,5.59,0,0,1-1.6.21,4.84,4.84,0,0,1-1.75-.27,2.63,2.63,0,0,1-1.11-.81,3.24,3.24,0,0,1-.59-1.33,9,9,0,0,1-.17-1.83v-9.28l1.86-.32Z"/><path class="cls-2" d="M24,199a6.54,6.54,0,0,1,.4-2.41,5,5,0,0,1,1.06-1.71,4.16,4.16,0,0,1,1.52-1,4.67,4.67,0,0,1,1.76-.34A4,4,0,0,1,32,194.82a6,6,0,0,1,1.12,4v.31c0,.12,0,.24,0,.35H25.94a3.79,3.79,0,0,0,.94,2.46,3.45,3.45,0,0,0,2.56.84,7,7,0,0,0,1.65-.17,7.46,7.46,0,0,0,1-.33l.26,1.56a5.94,5.94,0,0,1-1.19.38,8.67,8.67,0,0,1-1.93.2,6.17,6.17,0,0,1-2.35-.41,4.49,4.49,0,0,1-1.63-1.13,4.61,4.61,0,0,1-1-1.71A7.16,7.16,0,0,1,24,199Zm7.14-1a3.14,3.14,0,0,0-.63-2.07,2.16,2.16,0,0,0-1.79-.81,2.41,2.41,0,0,0-1.13.25,2.53,2.53,0,0,0-.83.65,2.88,2.88,0,0,0-.53.92A4.31,4.31,0,0,0,26,198Z"/><path class="cls-2" d="M39.6,193.55l.55,0a6,6,0,0,1,.61.08l.55.1a2.21,2.21,0,0,1,.37.09l-.32,1.62a4.8,4.8,0,0,0-.73-.19,6,6,0,0,0-1.31-.11,4.45,4.45,0,0,0-1,.11l-.67.15v8.74H35.76v-10a12.8,12.8,0,0,1,1.64-.45A10.54,10.54,0,0,1,39.6,193.55Z"/><path class="cls-2" d="M46.6,204.37a3.61,3.61,0,0,1-2.44-.74,2.94,2.94,0,0,1-.72-2.18V189l1.86-.32v12.5a3.22,3.22,0,0,0,.08.76,1,1,0,0,0,.26.48,1.12,1.12,0,0,0,.48.27,5,5,0,0,0,.74.15Z"/><path class="cls-2" d="M49.86,191.89a1.16,1.16,0,0,1-1.2-1.22,1.17,1.17,0,0,1,.35-.89,1.26,1.26,0,0,1,1.7,0,1.17,1.17,0,0,1,.35.89,1.16,1.16,0,0,1-1.2,1.22Zm.94,12.28H48.94v-10.4H50.8Z"/><path class="cls-2" d="M54,194.07c.42-.11,1-.22,1.7-.34a14.74,14.74,0,0,1,2.44-.18,5.18,5.18,0,0,1,2.06.35,3.19,3.19,0,0,1,1.31,1,3.81,3.81,0,0,1,.69,1.51,8.9,8.9,0,0,1,.2,1.94v5.84H60.54v-5.44a8.57,8.57,0,0,0-.13-1.64A2.78,2.78,0,0,0,60,196a1.68,1.68,0,0,0-.8-.61,3.46,3.46,0,0,0-1.24-.2l-.62,0-.61,0-.52.07-.33.06v8.78H54Z"/><path class="cls-2" d="M64.9,199a6.54,6.54,0,0,1,.4-2.41,4.87,4.87,0,0,1,1.06-1.71,4.08,4.08,0,0,1,1.52-1,4.67,4.67,0,0,1,1.76-.34,4,4,0,0,1,3.22,1.31,6.05,6.05,0,0,1,1.12,4v.31c0,.12,0,.24,0,.35H66.84a3.79,3.79,0,0,0,.94,2.46,3.43,3.43,0,0,0,2.56.84A7,7,0,0,0,72,202.6a8,8,0,0,0,1-.33l.26,1.56a6.18,6.18,0,0,1-1.19.38,8.67,8.67,0,0,1-1.93.2,6.17,6.17,0,0,1-2.35-.41,4.41,4.41,0,0,1-1.63-1.13,4.47,4.47,0,0,1-1-1.71A7.16,7.16,0,0,1,64.9,199ZM72,198a3.14,3.14,0,0,0-.63-2.07,2.18,2.18,0,0,0-1.79-.81,2.38,2.38,0,0,0-1.13.25,2.43,2.43,0,0,0-.83.65,2.71,2.71,0,0,0-.53.92,4.31,4.31,0,0,0-.25,1.06Z"/><path class="cls-2" d="M80,193.51a5.29,5.29,0,0,1,1.89.29,3,3,0,0,1,1.24.82,3.18,3.18,0,0,1,.67,1.26,6.17,6.17,0,0,1,.2,1.61V204l-.67.11-1,.13-1.17.11c-.42,0-.84,0-1.25,0a6.81,6.81,0,0,1-1.62-.18,3.57,3.57,0,0,1-1.28-.57,2.66,2.66,0,0,1-.84-1,3.62,3.62,0,0,1-.3-1.54,2.87,2.87,0,0,1,.35-1.48,2.68,2.68,0,0,1,1-1,4.19,4.19,0,0,1,1.4-.56,7.59,7.59,0,0,1,1.68-.18l.58,0a4.89,4.89,0,0,1,.57.08l.47.09.28.06v-.52a4.61,4.61,0,0,0-.1-.91,2.16,2.16,0,0,0-.36-.8,1.81,1.81,0,0,0-.71-.56,2.78,2.78,0,0,0-1.17-.21,8.45,8.45,0,0,0-1.61.13,4.61,4.61,0,0,0-1,.27L77,194a5.53,5.53,0,0,1,1.2-.31A10.31,10.31,0,0,1,80,193.51Zm.16,9.32q.66,0,1.17,0a4.44,4.44,0,0,0,.85-.12v-3.09a2.12,2.12,0,0,0-.65-.17,6.87,6.87,0,0,0-1.09-.07,7,7,0,0,0-.89.06,2.61,2.61,0,0,0-.86.25,1.74,1.74,0,0,0-.65.52,1.31,1.31,0,0,0-.26.87,1.47,1.47,0,0,0,.64,1.38A3.2,3.2,0,0,0,80.18,202.83Z"/><path class="cls-2" d="M93.82,189l1.86-.32v15.22c-.43.12-1,.24-1.64.36a13.17,13.17,0,0,1-2.3.18,5.9,5.9,0,0,1-2.16-.38A4.78,4.78,0,0,1,87.94,203a4.65,4.65,0,0,1-1-1.71,6.51,6.51,0,0,1-.37-2.27,7.27,7.27,0,0,1,.31-2.2,4.8,4.8,0,0,1,.91-1.72,4.06,4.06,0,0,1,1.47-1.12,4.65,4.65,0,0,1,2-.4,4.83,4.83,0,0,1,1.59.24,4.93,4.93,0,0,1,1,.46Zm0,7a3.8,3.8,0,0,0-1-.54,3.6,3.6,0,0,0-1.4-.26,2.89,2.89,0,0,0-1.37.29,2.49,2.49,0,0,0-.93.8,3.24,3.24,0,0,0-.52,1.21,6.45,6.45,0,0,0-.16,1.5,4,4,0,0,0,.9,2.81,3.12,3.12,0,0,0,2.4,1A11,11,0,0,0,93,202.7a7.56,7.56,0,0,0,.79-.15Z"/><path class="cls-2" d="M108.06,199a6.62,6.62,0,0,1-.36,2.24,5.25,5.25,0,0,1-1,1.72,4.5,4.5,0,0,1-1.55,1.11,5.12,5.12,0,0,1-3.92,0,4.41,4.41,0,0,1-1.55-1.11,5.08,5.08,0,0,1-1-1.72,7.12,7.12,0,0,1,0-4.47,4.94,4.94,0,0,1,1-1.73,4.41,4.41,0,0,1,1.55-1.11,5.12,5.12,0,0,1,3.92,0,4.5,4.5,0,0,1,1.55,1.11,5.09,5.09,0,0,1,1,1.73A6.56,6.56,0,0,1,108.06,199Zm-1.94,0a4.49,4.49,0,0,0-.79-2.79,2.76,2.76,0,0,0-4.3,0,5.32,5.32,0,0,0,0,5.58,2.57,2.57,0,0,0,2.15,1,2.6,2.6,0,0,0,2.15-1A4.53,4.53,0,0,0,106.12,199Z"/><path class="cls-2" d="M117.68,195.65a7.22,7.22,0,0,1,4.43,1.32,4,4,0,0,1,1.41,3.26,4.71,4.71,0,0,1-.31,1.7,3.59,3.59,0,0,1-.94,1.34,4.66,4.66,0,0,1-1.59.88,7.33,7.33,0,0,1-2.28.32,7.68,7.68,0,0,1-1.06-.08,8.34,8.34,0,0,1-1-.21,8.45,8.45,0,0,1-.82-.23,4.48,4.48,0,0,1-.52-.2l.36-1.62q.33.15,1.11.42a6,6,0,0,0,1.89.26,5,5,0,0,0,1.51-.2,3.1,3.1,0,0,0,1-.54,2.13,2.13,0,0,0,.55-.79,2.75,2.75,0,0,0,.17-.95,3.35,3.35,0,0,0-.26-1.35,2.18,2.18,0,0,0-.92-1,5.31,5.31,0,0,0-1.76-.61,15.28,15.28,0,0,0-2.78-.21c.08-.66.14-1.27.19-1.84s.09-1.14.13-1.68.07-1.09.1-1.63,0-1.11.08-1.71H123v1.58H118q0,.3-.06.81c0,.34-.06.69-.08,1.06s-.06.72-.08,1.07S117.7,195.45,117.68,195.65Z"/><path class="cls-2" d="M126,197.23a9.77,9.77,0,0,1,1.23-5.36,4,4,0,0,1,6.82,0,12.29,12.29,0,0,1,0,10.72,4,4,0,0,1-6.82,0A9.8,9.8,0,0,1,126,197.23Zm7.32,0a18.44,18.44,0,0,0-.13-2.16,7.47,7.47,0,0,0-.44-1.78,3.21,3.21,0,0,0-.83-1.21,1.91,1.91,0,0,0-1.28-.45,1.87,1.87,0,0,0-1.28.45,3,3,0,0,0-.83,1.21,6.62,6.62,0,0,0-.44,1.78,18,18,0,0,0,0,4.32,6.72,6.72,0,0,0,.44,1.78,3.07,3.07,0,0,0,.83,1.21,1.87,1.87,0,0,0,1.28.45,1.91,1.91,0,0,0,1.28-.45,3.29,3.29,0,0,0,.83-1.21,7.6,7.6,0,0,0,.44-1.78A18.44,18.44,0,0,0,133.3,197.23Z"/><path class="cls-2" d="M151.64,199a7.6,7.6,0,0,1-.31,2.18,5,5,0,0,1-.91,1.72A4.17,4.17,0,0,1,149,204a5.25,5.25,0,0,1-3.58.16,5.22,5.22,0,0,1-1-.46v4.16h-1.86V194.09c.44-.11,1-.23,1.65-.35a12,12,0,0,1,2.29-.19,5.69,5.69,0,0,1,2.16.38,4.6,4.6,0,0,1,1.64,1.08,4.75,4.75,0,0,1,1.05,1.71A6.71,6.71,0,0,1,151.64,199Zm-1.94,0a4,4,0,0,0-.9-2.81,3.11,3.11,0,0,0-2.4-1,10.94,10.94,0,0,0-1.31.06,4.21,4.21,0,0,0-.75.14V202a4.07,4.07,0,0,0,1,.54,3.71,3.71,0,0,0,1.4.26,3,3,0,0,0,1.37-.29,2.58,2.58,0,0,0,.93-.8,3.53,3.53,0,0,0,.52-1.2A7,7,0,0,0,149.7,199Z"/><path class="cls-2" d="M160.14,204.17c-.15-.3-.33-.62-.54-1s-.45-.72-.7-1.1l-.78-1.13c-.27-.38-.53-.73-.78-1.06-.26.33-.51.69-.78,1.07s-.52.76-.77,1.14-.48.75-.69,1.11-.39.68-.54,1h-1.92a23.69,23.69,0,0,1,1.67-2.77c.65-.94,1.29-1.84,1.93-2.69l-3.44-4.94h2.1l2.48,3.64,2.5-3.64h2l-3.36,4.82c.64.86,1.29,1.78,2,2.75a24.22,24.22,0,0,1,1.71,2.83Z"/><path class="cls-1" d="M21.92,133.41H26v29.11H21.92V149.08H7.69v13.44H3.61V133.41H7.69v12.14H21.92Z"/><path class="cls-1" d="M49.22,140.84a7.18,7.18,0,0,1-.61,2.92A13.81,13.81,0,0,1,47,146.53a27.91,27.91,0,0,1-2.27,2.69c-.84.88-1.68,1.75-2.52,2.59-.48.47-1,1-1.66,1.68a24.13,24.13,0,0,0-1.78,2,15.9,15.9,0,0,0-1.41,2,3.42,3.42,0,0,0-.57,1.68h13.4v3.32H32.55a2.92,2.92,0,0,1,0-.51v-.46a10,10,0,0,1,.65-3.67,14.81,14.81,0,0,1,1.7-3.22,22,22,0,0,1,2.35-2.85c.87-.9,1.72-1.77,2.56-2.61.7-.67,1.37-1.33,2-2a21.06,21.06,0,0,0,1.68-2,9.26,9.26,0,0,0,1.17-2,5.62,5.62,0,0,0,.45-2.23,5.27,5.27,0,0,0-.4-2.14,4.36,4.36,0,0,0-1.07-1.47A4.26,4.26,0,0,0,42,136.5a6.3,6.3,0,0,0-1.91-.28,7.19,7.19,0,0,0-2.23.34,10,10,0,0,0-1.8.78,7.38,7.38,0,0,0-1.35.92l-.84.74L32,136.22a9.93,9.93,0,0,1,1.14-1A10.75,10.75,0,0,1,34.9,134a12.93,12.93,0,0,1,2.35-.92,9.81,9.81,0,0,1,2.82-.38q4.57,0,6.86,2.12A7.73,7.73,0,0,1,49.22,140.84Z"/><path class="cls-1" d="M80.85,150.34c.45.56,1,1.29,1.7,2.2s1.39,1.92,2.12,3,1.45,2.27,2.16,3.47a32.82,32.82,0,0,1,1.83,3.49H84.21q-.84-1.61-1.83-3.24c-.66-1.09-1.32-2.13-2-3.13s-1.34-1.92-2-2.79-1.25-1.62-1.78-2.27c-.37,0-.74,0-1.12,0H70.68v11.39H66.61V133.83a23.23,23.23,0,0,1,3.84-.57c1.42-.09,2.71-.14,3.89-.14q6.14,0,9.34,2.31a7.93,7.93,0,0,1,3.22,6.88,8.07,8.07,0,0,1-1.54,5A9.07,9.07,0,0,1,80.85,150.34Zm-6.18-13.65q-2.6,0-4,.12v11h2.9a30.7,30.7,0,0,0,3.78-.21,8.68,8.68,0,0,0,2.84-.79A4.33,4.33,0,0,0,82,145.11a5.58,5.58,0,0,0,.63-2.84,5.41,5.41,0,0,0-.63-2.73,4.68,4.68,0,0,0-1.7-1.72,7.43,7.43,0,0,0-2.52-.88A17.82,17.82,0,0,0,74.67,136.69Z"/><path class="cls-1" d="M91.56,151.64a13.94,13.94,0,0,1,.84-5.06A10.52,10.52,0,0,1,94.62,143a9,9,0,0,1,3.2-2.15,10,10,0,0,1,3.69-.71,8.4,8.4,0,0,1,6.76,2.75c1.57,1.83,2.36,4.63,2.36,8.38v.65a5.62,5.62,0,0,1,0,.74h-15a8,8,0,0,0,2,5.16c1.14,1.18,2.94,1.77,5.37,1.77a14.28,14.28,0,0,0,3.47-.36,13.51,13.51,0,0,0,2.12-.69l.54,3.27a11.6,11.6,0,0,1-2.5.8,17.75,17.75,0,0,1-4,.42,12.9,12.9,0,0,1-4.93-.86,9.39,9.39,0,0,1-3.43-2.37,9.72,9.72,0,0,1-2-3.6A14.94,14.94,0,0,1,91.56,151.64Zm15-2.14a6.53,6.53,0,0,0-1.32-4.35,4.53,4.53,0,0,0-3.76-1.7,5.11,5.11,0,0,0-2.37.52,5.64,5.64,0,0,0-1.75,1.37,6.45,6.45,0,0,0-1.11,1.93,9.15,9.15,0,0,0-.52,2.23Z"/><path class="cls-1" d="M129.94,160.33a9.72,9.72,0,0,1-2,.86,9.87,9.87,0,0,1-3.38.53,10.88,10.88,0,0,1-3.72-.63,8,8,0,0,1-3-2,9.51,9.51,0,0,1-2.06-3.29,13.29,13.29,0,0,1-.76-4.71,12.92,12.92,0,0,1,.72-4.39,9.91,9.91,0,0,1,2.08-3.44,9.51,9.51,0,0,1,3.34-2.27,11.61,11.61,0,0,1,4.45-.82,25.61,25.61,0,0,1,4.77.4c1.35.27,2.5.51,3.42.74v19.49q0,5-2.61,7.3c-1.73,1.52-4.36,2.27-7.89,2.27a21.94,21.94,0,0,1-3.89-.33,24.71,24.71,0,0,1-3.17-.8l.72-3.4a18.16,18.16,0,0,0,2.87.81,17.17,17.17,0,0,0,3.55.36q3.49,0,5-1.38a5.7,5.7,0,0,0,1.53-4.41Zm0-16.21a13.24,13.24,0,0,0-1.57-.32,20.59,20.59,0,0,0-2.67-.14,5.91,5.91,0,0,0-4.85,2.06,8.31,8.31,0,0,0-1.7,5.46,9.64,9.64,0,0,0,.48,3.23,6.47,6.47,0,0,0,1.3,2.23,5.25,5.25,0,0,0,1.89,1.3,6,6,0,0,0,2.21.42,9,9,0,0,0,2.86-.44,7.23,7.23,0,0,0,2.05-1Z"/><path class="cls-1" d="M157.92,161.89c-.9.22-2.08.46-3.55.71a30.72,30.72,0,0,1-5.11.38,10.81,10.81,0,0,1-4.24-.74,6.8,6.8,0,0,1-2.77-2.08,8.41,8.41,0,0,1-1.51-3.17,16.45,16.45,0,0,1-.46-4.05V140.68h3.9V152.1q0,4,1.26,5.71c.84,1.15,2.26,1.72,4.24,1.72.42,0,.86,0,1.31,0l1.26-.1,1.07-.13a2.79,2.79,0,0,0,.69-.15V140.68h3.91Z"/><path class="cls-1" d="M171.19,162.94q-3.62-.09-5.13-1.56a6.16,6.16,0,0,1-1.51-4.58V130.6l3.91-.68v26.25a6,6,0,0,0,.17,1.6,2.18,2.18,0,0,0,.54,1,2.3,2.3,0,0,0,1,.56,9.51,9.51,0,0,0,1.55.32Z"/><path class="cls-1" d="M183.16,140.13a11.23,11.23,0,0,1,4,.61,6.22,6.22,0,0,1,4,4.37,12.77,12.77,0,0,1,.42,3.38v13.65l-1.41.23q-.9.15-2,.27c-.75.09-1.57.16-2.45.23s-1.76.11-2.63.11a14.51,14.51,0,0,1-3.4-.38,7.52,7.52,0,0,1-2.69-1.2,5.44,5.44,0,0,1-1.76-2.16,7.56,7.56,0,0,1-.63-3.23,6.22,6.22,0,0,1,.73-3.11,5.84,5.84,0,0,1,2-2.1,9.24,9.24,0,0,1,2.94-1.18,16.12,16.12,0,0,1,3.53-.38,10.17,10.17,0,0,1,1.21.07c.42,0,.82.1,1.2.16l1,.19.59.13V148.7a8.73,8.73,0,0,0-.21-1.91,4.44,4.44,0,0,0-.76-1.68,3.77,3.77,0,0,0-1.49-1.18,5.92,5.92,0,0,0-2.46-.44,18.66,18.66,0,0,0-3.38.27,12.07,12.07,0,0,0-2.16.57l-.46-3.23a11.43,11.43,0,0,1,2.52-.66A21.73,21.73,0,0,1,183.16,140.13Zm.33,19.57q1.39,0,2.46-.06a10.92,10.92,0,0,0,1.79-.23V152.9a5.11,5.11,0,0,0-1.37-.36,14.86,14.86,0,0,0-2.29-.15,15.63,15.63,0,0,0-1.87.13,5.71,5.71,0,0,0-1.8.52,3.79,3.79,0,0,0-1.37,1.1,2.88,2.88,0,0,0-.54,1.82,3.12,3.12,0,0,0,1.34,2.92A7,7,0,0,0,183.49,159.7Z"/><path class="cls-1" d="M206.09,140.21a9.93,9.93,0,0,1,1.15.07c.44,0,.87.1,1.29.16l1.15.21c.35.07.61.14.78.19l-.67,3.41a11,11,0,0,0-1.54-.4,13,13,0,0,0-2.75-.23,9.79,9.79,0,0,0-2.16.23l-1.41.31v18.36H198V141.6a26.63,26.63,0,0,1,3.44-.95A22.37,22.37,0,0,1,206.09,140.21Z"/><path class="cls-1" d="M222.26,152.44a46.15,46.15,0,0,1,2.18-4.31c.93-1.64,2-3.32,3.13-5.06s2.41-3.44,3.74-5.12a52.58,52.58,0,0,1,4-4.54h3.74v18.48h3.44v3.19h-3.44v7.44h-3.78v-7.44h-13Zm13-14.41c-.84.9-1.69,1.9-2.54,3s-1.69,2.26-2.5,3.47-1.58,2.43-2.29,3.69-1.35,2.5-1.91,3.7h9.24Z"/><path class="cls-1" d="M263.88,140.84a7.18,7.18,0,0,1-.61,2.92,14.36,14.36,0,0,1-1.62,2.77,26.42,26.42,0,0,1-2.26,2.69c-.84.88-1.68,1.75-2.53,2.59l-1.65,1.68a26.21,26.21,0,0,0-1.79,2,17,17,0,0,0-1.41,2,3.49,3.49,0,0,0-.56,1.68h13.4v3.32H247.21a2.94,2.94,0,0,1-.05-.51v-.46a10.22,10.22,0,0,1,.65-3.67,15.3,15.3,0,0,1,1.71-3.22,21.17,21.17,0,0,1,2.35-2.85c.86-.9,1.72-1.77,2.56-2.61.7-.67,1.36-1.33,2-2a21.06,21.06,0,0,0,1.68-2,9.31,9.31,0,0,0,1.18-2,5.8,5.8,0,0,0,.44-2.23,5.11,5.11,0,0,0-.4-2.14,4.11,4.11,0,0,0-1.07-1.47,4.22,4.22,0,0,0-1.57-.86,6.35,6.35,0,0,0-1.91-.28,7.1,7.1,0,0,0-2.23.34,10.38,10.38,0,0,0-1.81.78,7.28,7.28,0,0,0-1.34.92l-.84.74-1.93-2.78a10.59,10.59,0,0,1,1.13-1,11.3,11.3,0,0,1,1.81-1.15,12.93,12.93,0,0,1,2.35-.92,9.79,9.79,0,0,1,2.81-.38c3.06,0,5.34.71,6.87,2.12A7.73,7.73,0,0,1,263.88,140.84Z"/><path class="cls-1" d="M290.55,151.64a15.55,15.55,0,0,1-.65,4.58,10.47,10.47,0,0,1-1.91,3.61,8.65,8.65,0,0,1-3.09,2.35,9.9,9.9,0,0,1-4.18.84,10.34,10.34,0,0,1-3.34-.5,10.59,10.59,0,0,1-2.16-1v8.74h-3.91V141.35c.93-.23,2.08-.47,3.47-.74a26.22,26.22,0,0,1,4.81-.4,12.23,12.23,0,0,1,4.53.8,9.74,9.74,0,0,1,3.45,2.27,10.1,10.1,0,0,1,2.2,3.59A13.75,13.75,0,0,1,290.55,151.64Zm-4.07,0a8.38,8.38,0,0,0-1.9-5.88,6.51,6.51,0,0,0-5-2.06,21.77,21.77,0,0,0-2.75.13,10.94,10.94,0,0,0-1.57.29V157.9a8.47,8.47,0,0,0,5,1.68,6.3,6.3,0,0,0,2.87-.61,5.41,5.41,0,0,0,2-1.68,7.38,7.38,0,0,0,1.09-2.52A14.1,14.1,0,0,0,286.48,151.64Z"/><path class="cls-1" d="M308.4,162.52c-.31-.62-.69-1.31-1.14-2.06s-.93-1.54-1.47-2.33-1.07-1.59-1.63-2.38-1.11-1.52-1.64-2.22c-.53.7-1.08,1.45-1.64,2.24s-1.1,1.6-1.62,2.4-1,1.57-1.45,2.33-.82,1.43-1.13,2h-4a53.74,53.74,0,0,1,3.5-5.82q2-3,4.06-5.65L293,140.68h4.41l5.21,7.64,5.25-7.64H312L305,150.8q2,2.73,4.14,5.77a50,50,0,0,1,3.59,6Z"/></g></g></svg>