<svg xmlns="http://www.w3.org/2000/svg" viewBox="0 0 1051.25 405.8"><defs><style>.cls-1{fill:#00a3d8;}.cls-2{fill:#fff;}.cls-3{fill:#2e314c;}.cls-4{fill:none;stroke:#6b6b6b;stroke-miterlimit:10;stroke-width:3px;}.cls-5{font-size:21px;fill:#6b6b6b;font-family:Ubuntu-Medium, Ubuntu;font-weight:500;}</style></defs><g id="Capa_2" data-name="Capa 2"><g id="Versiones_negativo_positivo" data-name="Versiones/negativo/positivo"><path class="cls-1" d="M243.63,285c-5.84,66.69-64.71,120.82-131.4,120.82S-3.86,351.67,2,285s64.7-120.83,131.39-120.83S249.46,218.29,243.63,285Z"/><path class="cls-2" d="M90.25,245c4.26-9.63,6.46-23.65,25.11-23.65h53.77C165.6,233,158.4,245,140.85,245Z"/><path class="cls-2" d="M114.63,299.61c-1.46,8.29-9.35,15-17.64,15s-13.81-6.71-12.35-15,9.35-15,17.64-15S116.1,291.32,114.63,299.61Z"/><path class="cls-2" d="M80.74,319.73,71,341.19s7.68,1.7,26.57,1.7c42.92,0,71.21-13.77,71.21-44.62s-30-42.06-64.38-42.06l-18,.85-10,22.31c-.24,0,10-.85,21.21-.85,31.7,0,45.48,7.68,45.48,19.75S132,320.58,96.71,320.58C88.91,320.58,80.37,319.73,80.74,319.73Z"/><path class="cls-3" d="M315,260.26H296.39l15.68-66h18.69Zm9-74a11.48,11.48,0,0,1-7-2.33c-2.1-1.54-3.14-3.9-3.14-7.08a11.75,11.75,0,0,1,1.06-5,13.06,13.06,0,0,1,2.83-4,13.64,13.64,0,0,1,4.07-2.7,12.35,12.35,0,0,1,5-1,11.49,11.49,0,0,1,7,2.32q3.14,2.33,3.14,7.09a11.72,11.72,0,0,1-1.07,4.95,13.12,13.12,0,0,1-2.82,4,13.72,13.72,0,0,1-4.08,2.69A12.28,12.28,0,0,1,324,186.26Z"/><path class="cls-3" d="M347.07,197.29q2.13-.61,4.7-1.44t5.77-1.5a71.35,71.35,0,0,1,7.15-1.13,82.78,82.78,0,0,1,9-.44q14.8,0,20.32,8.53t1.88,23.33l-8.53,35.62H368.64l8.28-34.87c.51-2.17.9-4.28,1.2-6.33a15.32,15.32,0,0,0-.07-5.4,6.37,6.37,0,0,0-2.32-3.76q-1.82-1.44-5.58-1.44a37.77,37.77,0,0,0-7.4.75l-12.17,51H331.89Z"/><path class="cls-3" d="M491.54,262A30.29,30.29,0,0,1,480,260a21.29,21.29,0,0,1-8.09-5.64,24.53,24.53,0,0,1-4.83-8.59,35.25,35.25,0,0,1-1.63-11,48.47,48.47,0,0,1,2.45-15.05,43,43,0,0,1,7.21-13.55,38.79,38.79,0,0,1,11.67-9.85,32,32,0,0,1,15.8-3.82,30.57,30.57,0,0,1,11.48,2,21.37,21.37,0,0,1,8.15,5.65,24.37,24.37,0,0,1,4.83,8.59,34.91,34.91,0,0,1,1.63,11,49.56,49.56,0,0,1-2.38,15.05,43.65,43.65,0,0,1-7,13.55,37.15,37.15,0,0,1-11.61,9.85A33,33,0,0,1,491.54,262Zm9.29-53.69a11.7,11.7,0,0,0-7.28,2.39,20.37,20.37,0,0,0-5.27,6,29.7,29.7,0,0,0-3.2,8,34.47,34.47,0,0,0-1.06,8.22c0,4.26.67,7.55,2,9.85s3.76,3.45,7.27,3.45a11.7,11.7,0,0,0,7.28-2.39,20.34,20.34,0,0,0,5.26-6,29.37,29.37,0,0,0,3.2-8,34.51,34.51,0,0,0,1.07-8.22c0-4.26-.67-7.55-2-9.85S504.34,208.33,500.83,208.33Z"/><path class="cls-3" d="M584.12,210.34c-1.68-.42-3.33-.81-5-1.19a34,34,0,0,0-7.21-.57,26.86,26.86,0,0,0-3.89.32,31.14,31.14,0,0,0-3.51.69l-12.17,50.67H533.69l15-62.46q5.4-1.76,12.11-3.33A66.87,66.87,0,0,1,576,192.9a47.81,47.81,0,0,1,7,.57,26.62,26.62,0,0,1,6.71,1.82Z"/><path class="cls-3" d="M600.3,197.29q2.13-.61,4.58-1.44t5.52-1.5a64.59,64.59,0,0,1,6.9-1.13,79,79,0,0,1,8.84-.44,28.37,28.37,0,0,1,10,1.5,22.21,22.21,0,0,1,7.21,4.52,63.07,63.07,0,0,1,9.22-4.33,30.91,30.91,0,0,1,10.73-1.69,28.88,28.88,0,0,1,10.1,1.57,18,18,0,0,1,7,4.51,17.71,17.71,0,0,1,4,7,30.24,30.24,0,0,1,1.26,9,38.3,38.3,0,0,1-.32,4.76,41.79,41.79,0,0,1-.94,5l-8.53,35.62H657.12l8.28-34.87c.25-1.17.52-2.48.82-3.95a22.17,22.17,0,0,0,.44-4.33A11.18,11.18,0,0,0,665,211c-1.09-1.71-3.23-2.57-6.4-2.57a13.49,13.49,0,0,0-5,.94,43.35,43.35,0,0,0-4.26,1.94,8.19,8.19,0,0,1,.25,1.89v1.63a38.3,38.3,0,0,1-.32,4.76,41.79,41.79,0,0,1-.94,5l-8.53,35.62H621.12l8.28-34.87c.25-1.17.52-2.48.82-3.95a22.15,22.15,0,0,0,.43-4.33A11.1,11.1,0,0,0,629,211c-1.08-1.71-3.22-2.57-6.39-2.57a24.89,24.89,0,0,0-3.39.19c-.92.12-2,.31-3.26.56l-12.17,51H585.12Z"/><path class="cls-3" d="M753.08,231.79a41.72,41.72,0,0,0-1,14.36A51.46,51.46,0,0,0,755,259l-16.68,2.38q-.75-1.5-1.38-2.88c-.42-.92-.84-2-1.25-3.14a33.71,33.71,0,0,1-7.78,4.77,23.42,23.42,0,0,1-9.53,1.88,24.1,24.1,0,0,1-10.73-2.19,20.24,20.24,0,0,1-7.27-5.9,23.46,23.46,0,0,1-4.08-8.65,44.91,44.91,0,0,1,1.82-26.91A41.38,41.38,0,0,1,706.61,205a39.89,39.89,0,0,1,12.85-9,39.48,39.48,0,0,1,16.06-3.26c.75,0,2.07,0,4,.12s4,.28,6.46.57a61.39,61.39,0,0,1,7.65,1.44,39.91,39.91,0,0,1,7.66,2.76Zm-13-23.08c-1.09-.17-2.07-.29-2.95-.38s-2-.12-3.2-.12a15.74,15.74,0,0,0-8,2.13,22.87,22.87,0,0,0-6.46,5.58,26.48,26.48,0,0,0-4.32,8,28.33,28.33,0,0,0-1.57,9.41q0,6,2,9.53t7.4,3.51a11.64,11.64,0,0,0,5.2-1.13,19.23,19.23,0,0,0,5-3.76c.16-2.09.44-4.29.81-6.59s.78-4.41,1.19-6.33Z"/><path class="cls-3" d="M782.94,177.85l19.44-3-4.77,19.44h20.83l-3.77,15.31H794l-5.53,23.08a31,31,0,0,0-.94,5.39,9,9,0,0,0,.63,4.33,5.81,5.81,0,0,0,2.82,2.82,12.51,12.51,0,0,0,5.52,1,29.51,29.51,0,0,0,5.84-.57,41.86,41.86,0,0,0,5.7-1.57l1.38,14.3a66.63,66.63,0,0,1-8.15,2.39,47.23,47.23,0,0,1-10.41,1q-8.65,0-13.42-2.57a14.86,14.86,0,0,1-6.78-7A22.27,22.27,0,0,1,768.89,242a65.49,65.49,0,0,1,1.75-12.17Z"/><path class="cls-3" d="M835.74,260.26H817.18l15.68-66h18.69Zm9-74a11.51,11.51,0,0,1-7-2.33q-3.13-2.31-3.13-7.08a11.75,11.75,0,0,1,1.06-5,13.2,13.2,0,0,1,2.82-4,13.56,13.56,0,0,1,4.08-2.7,12.35,12.35,0,0,1,5-1,11.49,11.49,0,0,1,7,2.32q3.13,2.33,3.14,7.09a11.72,11.72,0,0,1-1.07,4.95,13.12,13.12,0,0,1-2.82,4,13.72,13.72,0,0,1-4.08,2.69A12.34,12.34,0,0,1,844.78,186.26Z"/><path class="cls-3" d="M869.11,260.26q-3.25-12.54-5.89-29.29a349.31,349.31,0,0,1-3.64-36.69H878.9c.08,3.27.2,6.84.37,10.73s.38,7.8.63,11.73.54,7.76.88,11.47.71,7.09,1.12,10.1q2.76-3.76,6.21-9.28t6.72-11.54q3.25-6,6-12.1a90.39,90.39,0,0,0,4.26-11.11h19.82a163.46,163.46,0,0,1-8.09,18.32Q912,222,906.49,230.79t-11.23,16.43q-5.7,7.65-10.6,13Z"/><path class="cls-3" d="M951,262a30.25,30.25,0,0,1-11.54-2,21.21,21.21,0,0,1-8.09-5.64,24.53,24.53,0,0,1-4.83-8.59,35,35,0,0,1-1.63-11,48.17,48.17,0,0,1,2.45-15.05,43,43,0,0,1,7.21-13.55,38.75,38.75,0,0,1,11.66-9.85,32.06,32.06,0,0,1,15.81-3.82,30.6,30.6,0,0,1,11.48,2,21.37,21.37,0,0,1,8.15,5.65,24.53,24.53,0,0,1,4.83,8.59,34.91,34.91,0,0,1,1.63,11,49.87,49.87,0,0,1-2.38,15.05,43.47,43.47,0,0,1-7,13.55,37,37,0,0,1-11.6,9.85A33.06,33.06,0,0,1,951,262Zm9.28-53.69a11.67,11.67,0,0,0-7.27,2.39,20.37,20.37,0,0,0-5.27,6,29.7,29.7,0,0,0-3.2,8,34.51,34.51,0,0,0-1.07,8.22c0,4.26.67,7.55,2,9.85s3.76,3.45,7.28,3.45a11.67,11.67,0,0,0,7.27-2.39,20.37,20.37,0,0,0,5.27-6,29.7,29.7,0,0,0,3.2-8,34.51,34.51,0,0,0,1.07-8.22c0-4.26-.67-7.55-2-9.85S963.82,208.33,960.3,208.33Z"/><path class="cls-3" d="M1014.62,247q6.39,0,8.78-1.82a5.05,5.05,0,0,0,2.38-4,6,6,0,0,0-.44-2.39,5.48,5.48,0,0,0-1.44-1.88,15.49,15.49,0,0,0-2.76-1.82q-1.75-.93-4.52-2.19a63.41,63.41,0,0,1-5.89-2.95,20.45,20.45,0,0,1-4.83-3.76,16.64,16.64,0,0,1-3.26-5,17.09,17.09,0,0,1-1.19-6.71q0-10.15,7.46-16.06t21.76-5.89a44.13,44.13,0,0,1,12,1.5,44.89,44.89,0,0,1,8.53,3.26l-6.4,13.93a40.08,40.08,0,0,0-6.78-2.64,28.18,28.18,0,0,0-8.15-1.25,30.17,30.17,0,0,0-3.45.19,11,11,0,0,0-3.14.81,5.79,5.79,0,0,0-2.31,1.76,4.73,4.73,0,0,0-.88,3,4.16,4.16,0,0,0,1.94,3.76,59.84,59.84,0,0,0,5.46,3q4.89,2.38,8.15,4.39a22.19,22.19,0,0,1,5.21,4.27,14.2,14.2,0,0,1,2.82,5.14,23.56,23.56,0,0,1,.88,6.77,19.62,19.62,0,0,1-1.7,7.91,18.46,18.46,0,0,1-5.33,6.9,28.81,28.81,0,0,1-9.28,4.89,43.2,43.2,0,0,1-13.55,1.88,56.4,56.4,0,0,1-8.84-.63,49.05,49.05,0,0,1-7-1.56,37.33,37.33,0,0,1-5.08-1.95c-1.38-.67-2.45-1.21-3.2-1.63l6.4-14.3a57.85,57.85,0,0,0,6.65,3.14A28.36,28.36,0,0,0,1014.62,247Z"/><path class="cls-3" d="M319.47,394.24q-9.41,0-13.79-4.14t-4.39-12A64.18,64.18,0,0,1,303,364.89l13.42-55.82,12.17-2-4.89,20.2h22.2L343.56,337h-22.2l-6.9,28.85A42.09,42.09,0,0,0,313,376.18q0,4.14,2.26,5.95c1.5,1.22,4,1.82,7.52,1.82a22,22,0,0,0,7.16-1.19,38.06,38.06,0,0,0,5.39-2.19l.88,9.91a29.66,29.66,0,0,1-6.4,2.44A36.7,36.7,0,0,1,319.47,394.24Z"/><path class="cls-3" d="M373.29,394.11a30.26,30.26,0,0,1-11-1.81,21.87,21.87,0,0,1-7.78-5,20,20,0,0,1-4.64-7.46,27.09,27.09,0,0,1-1.5-9A54.63,54.63,0,0,1,351,353.85a46.6,46.6,0,0,1,7.52-14.43,36.74,36.74,0,0,1,11.92-10,33.72,33.72,0,0,1,15.93-3.7,26.44,26.44,0,0,1,8.85,1.32,16.52,16.52,0,0,1,6,3.57,14.56,14.56,0,0,1,3.45,5.21,16.89,16.89,0,0,1,1.13,6.08,21.3,21.3,0,0,1-2.14,10,20.87,20.87,0,0,1-5.64,6.84,26.06,26.06,0,0,1-8.22,4.27,72.36,72.36,0,0,1-9.78,2.38,95,95,0,0,1-10.29,1.19l-9.85.57a14.31,14.31,0,0,0-.12,1.63v1a21.05,21.05,0,0,0,.69,5.46,10.21,10.21,0,0,0,2.57,4.51,12.74,12.74,0,0,0,5.21,3.07,27.49,27.49,0,0,0,8.72,1.13,29.76,29.76,0,0,0,4.95-.43,43.77,43.77,0,0,0,4.89-1.13q2.33-.69,4.14-1.38a9.42,9.42,0,0,0,2.57-1.32l1,9.91a41.72,41.72,0,0,1-8.09,2.95A49.09,49.09,0,0,1,373.29,394.11Zm-11.92-35.87q7.28-.25,13.3-.94a43,43,0,0,0,10.41-2.38,16.6,16.6,0,0,0,6.83-4.58,11.22,11.22,0,0,0,2.45-7.53,7.25,7.25,0,0,0-.44-2.38,6.2,6.2,0,0,0-1.5-2.32,8.14,8.14,0,0,0-2.95-1.76,13.59,13.59,0,0,0-4.64-.69,18.43,18.43,0,0,0-8.22,1.88,25.06,25.06,0,0,0-6.84,5,30.14,30.14,0,0,0-5.14,7.15A38.72,38.72,0,0,0,361.37,358.24Z"/><path class="cls-3" d="M427.73,363.76q-.63,2.76-1.26,5.39a21.62,21.62,0,0,0-.63,5,10.31,10.31,0,0,0,2.07,6.77c1.38,1.68,3.95,2.72,7.72,3.14L433,393.61a24.89,24.89,0,0,1-8.71-1.56,15.55,15.55,0,0,1-5.77-3.83,14.42,14.42,0,0,1-3.2-5.65,24.13,24.13,0,0,1-1-7.15,37.64,37.64,0,0,1,.51-6q.49-3.13,1.37-6.52L432,297.15l12.17-2Z"/><path class="cls-3" d="M471.75,394.11a30.24,30.24,0,0,1-11-1.81,21.87,21.87,0,0,1-7.78-5,20,20,0,0,1-4.64-7.46,26.85,26.85,0,0,1-1.51-9,54.64,54.64,0,0,1,2.64-16.93A46.39,46.39,0,0,1,457,339.42a36.53,36.53,0,0,1,11.92-10,33.72,33.72,0,0,1,15.93-3.7,26.34,26.34,0,0,1,8.84,1.32,16.35,16.35,0,0,1,6,3.57,14.3,14.3,0,0,1,3.45,5.21,16.68,16.68,0,0,1,1.13,6.08,21.3,21.3,0,0,1-2.13,10,20.87,20.87,0,0,1-5.64,6.84,26.17,26.17,0,0,1-8.22,4.27,72.73,72.73,0,0,1-9.78,2.38,95,95,0,0,1-10.29,1.19l-9.85.57a14.31,14.31,0,0,0-.12,1.63v1a21.05,21.05,0,0,0,.69,5.46,10.12,10.12,0,0,0,2.57,4.51,12.76,12.76,0,0,0,5.2,3.07,27.58,27.58,0,0,0,8.72,1.13,29.79,29.79,0,0,0,5-.43,43.77,43.77,0,0,0,4.89-1.13q2.33-.69,4.14-1.38a9.42,9.42,0,0,0,2.57-1.32l1,9.91a41.46,41.46,0,0,1-8.09,2.95A49,49,0,0,1,471.75,394.11Zm-11.91-35.87q7.28-.25,13.29-.94a43,43,0,0,0,10.42-2.38,16.6,16.6,0,0,0,6.83-4.58,11.27,11.27,0,0,0,2.45-7.53,7.25,7.25,0,0,0-.44-2.38,6.11,6.11,0,0,0-1.51-2.32,8,8,0,0,0-2.94-1.76,13.65,13.65,0,0,0-4.65-.69,18.42,18.42,0,0,0-8.21,1.88,25.06,25.06,0,0,0-6.84,5,30.14,30.14,0,0,0-5.14,7.15A38.72,38.72,0,0,0,459.84,358.24Z"/><path class="cls-3" d="M511.77,369.15a52.63,52.63,0,0,1,2.57-16.43,41.39,41.39,0,0,1,7.59-13.92,36.9,36.9,0,0,1,12.29-9.6,37.39,37.39,0,0,1,16.68-3.58,52.86,52.86,0,0,1,7.91.57,25.24,25.24,0,0,1,7.15,2.19l-4.39,9.79a18,18,0,0,0-4.71-1.76,32.23,32.23,0,0,0-7-.62,22.56,22.56,0,0,0-11,2.69,27,27,0,0,0-8.34,7.15,32.31,32.31,0,0,0-5.27,10.29,40.49,40.49,0,0,0-1.82,12.1,26.34,26.34,0,0,0,.69,6.15,12.79,12.79,0,0,0,2.45,5.08,11.88,11.88,0,0,0,4.7,3.45,19.16,19.16,0,0,0,7.47,1.25,27.86,27.86,0,0,0,4.76-.43,43.85,43.85,0,0,0,4.65-1.07c1.42-.42,2.69-.86,3.82-1.32a10.17,10.17,0,0,0,2.45-1.31l1,9.9a29.9,29.9,0,0,1-7.4,2.95,41.46,41.46,0,0,1-11.42,1.44,29.15,29.15,0,0,1-10.66-1.81,21.06,21.06,0,0,1-7.78-5.15,22.07,22.07,0,0,1-4.76-7.9A29.85,29.85,0,0,1,511.77,369.15Z"/><path class="cls-3" d="M577,392.48H565.33L581,327.26h11.66Zm13.55-77a7,7,0,0,1-4.83-1.76,6.24,6.24,0,0,1-1.94-4.89,8.26,8.26,0,0,1,8.15-8.66,7,7,0,0,1,4.89,1.82,6.5,6.5,0,0,1,2,5.08,7.72,7.72,0,0,1-2.63,6.08A8.42,8.42,0,0,1,590.54,315.47Z"/><path class="cls-3" d="M608.23,392.48H596.56l15.05-62.72a93.06,93.06,0,0,1,12.49-2.82,77.12,77.12,0,0,1,12-1.06,27.24,27.24,0,0,1,9.73,1.56,17.35,17.35,0,0,1,6.58,4.27,16.7,16.7,0,0,1,3.7,6.52,27.74,27.74,0,0,1,1.2,8.34,38.78,38.78,0,0,1-.51,6.09q-.49,3.19-1.25,6.46l-8,33.36H635.82l7.41-30.85c.58-2.34,1.14-4.73,1.69-7.15a31.85,31.85,0,0,0,.81-6.9,12.59,12.59,0,0,0-2.76-8.34q-2.76-3.33-10.28-3.33a49.78,49.78,0,0,0-6.15.38,29.16,29.16,0,0,0-5,1Z"/><path class="cls-3" d="M668.69,369.15a52.63,52.63,0,0,1,2.57-16.43,41.39,41.39,0,0,1,7.59-13.92,36.9,36.9,0,0,1,12.29-9.6,37.41,37.41,0,0,1,16.69-3.58,52.72,52.72,0,0,1,7.9.57,25.24,25.24,0,0,1,7.15,2.19l-4.39,9.79a18,18,0,0,0-4.71-1.76,32.23,32.23,0,0,0-7-.62,22.56,22.56,0,0,0-11,2.69,27,27,0,0,0-8.34,7.15,32.31,32.31,0,0,0-5.27,10.29,40.49,40.49,0,0,0-1.82,12.1,26.34,26.34,0,0,0,.69,6.15,12.79,12.79,0,0,0,2.45,5.08,11.88,11.88,0,0,0,4.7,3.45,19.16,19.16,0,0,0,7.47,1.25,27.86,27.86,0,0,0,4.76-.43,43.85,43.85,0,0,0,4.65-1.07c1.42-.42,2.69-.86,3.82-1.32a10,10,0,0,0,2.45-1.31l1,9.9a29.9,29.9,0,0,1-7.4,2.95,41.46,41.46,0,0,1-11.42,1.44,29.15,29.15,0,0,1-10.66-1.81,20.94,20.94,0,0,1-7.77-5.15,22.09,22.09,0,0,1-4.77-7.9A29.85,29.85,0,0,1,668.69,369.15Z"/><path class="cls-3" d="M746,394.11q-10.29,0-16.12-6.08T724,371.29A61.35,61.35,0,0,1,726.08,356a48.21,48.21,0,0,1,6.58-14.8A37.07,37.07,0,0,1,744.33,330q7.14-4.39,17.31-4.4t16.12,6.09q5.84,6.09,5.83,16.75a61.28,61.28,0,0,1-2.07,15.3,48.45,48.45,0,0,1-6.58,14.8,37.18,37.18,0,0,1-11.67,11.16Q756.12,394.11,746,394.11Zm2-9.9a16.62,16.62,0,0,0,10.09-3.27,28.32,28.32,0,0,0,7.53-8.34,42.4,42.4,0,0,0,4.7-11.22,46.29,46.29,0,0,0,1.63-11.92q0-6.4-2.76-10.16t-9.53-3.76a16.64,16.64,0,0,0-10.1,3.26,28.29,28.29,0,0,0-7.52,8.34,42.75,42.75,0,0,0-4.71,11.22,46.79,46.79,0,0,0-1.63,11.92q0,6.41,2.76,10.16T748,384.21Z"/><path class="cls-3" d="M438.36,208.9a26.75,26.75,0,0,1,3.89-.32,34.11,34.11,0,0,1,7.21.57c1.63.38,3.28.77,5,1.19l5.52-15.05a26.5,26.5,0,0,0-6.71-1.82,47.58,47.58,0,0,0-7-.57,66.87,66.87,0,0,0-15.11,1.57Q424.43,196,419,197.8l-5,20.69c-.12.44-.26.86-.37,1.31L404,260.26h18.69l5.15-21.43,21-.25,3.46-15.23.65-2.69h0l0-.18-10.67.18H432.19l2.66-11.07A30.69,30.69,0,0,1,438.36,208.9Z"/><line class="cls-4" x1="296.39" y1="203.72" x2="296.39" y2="28.06"/><line class="cls-4" x1="1.51" y1="203.72" x2="1.51" y2="28.06"/><text class="cls-5" transform="translate(0 17.78)">isologo</text><text class="cls-5" transform="translate(296.39 17.78)">logotipo</text></g></g></svg>