<svg xmlns="http://www.w3.org/2000/svg" viewBox="0 0 1049.74 241.65"><defs><style>.cls-1{fill:#00a3d8;}.cls-2{fill:#fff;}.cls-3{fill:#2e314c;}</style></defs><g id="Capa_2" data-name="Capa 2"><g id="Versiones_negativo_positivo" data-name="Versiones/negativo/positivo"><path class="cls-1" d="M242.12,120.83c-5.84,66.69-64.71,120.82-131.4,120.82S-5.37,187.52.47,120.83,65.17,0,131.86,0,248,54.13,242.12,120.83Z"/><path class="cls-2" d="M88.74,80.83C93,71.2,95.2,57.18,113.86,57.18h53.76c-3.53,11.71-10.73,23.65-28.28,23.65Z"/><path class="cls-2" d="M113.12,135.46c-1.46,8.29-9.35,15-17.64,15s-13.81-6.7-12.35-15,9.35-15,17.64-15S114.59,127.17,113.12,135.46Z"/><path class="cls-2" d="M79.23,155.57,69.48,177s7.68,1.71,26.58,1.71c42.91,0,71.2-13.78,71.2-44.63s-30-42.06-64.38-42.06l-18,.86-10,22.31c-.24,0,10-.86,21.22-.86,31.7,0,45.47,7.68,45.47,19.75s-11.09,22.32-46.33,22.32C87.4,156.43,78.86,155.57,79.23,155.57Z"/><path class="cls-3" d="M313.45,96.11H294.88l15.68-66h18.69Zm9-74a11.49,11.49,0,0,1-7-2.32c-2.1-1.55-3.14-3.91-3.14-7.09a11.6,11.6,0,0,1,1.07-4.95,13.12,13.12,0,0,1,2.82-4A13.72,13.72,0,0,1,320.29,1a12.28,12.28,0,0,1,4.95-1,11.61,11.61,0,0,1,7,2.32c2.08,1.55,3.13,3.92,3.13,7.09a11.76,11.76,0,0,1-1.07,5,13.2,13.2,0,0,1-2.82,4,13.56,13.56,0,0,1-4.08,2.7A12.27,12.27,0,0,1,322.48,22.1Z"/><path class="cls-3" d="M345.56,33.14q2.13-.63,4.7-1.44T356,30.19c2.14-.46,4.52-.83,7.15-1.13a82.78,82.78,0,0,1,9-.44q14.81,0,20.32,8.53t1.89,23.34l-8.53,35.62H367.14l8.27-34.87c.51-2.18.9-4.29,1.2-6.34a15.27,15.27,0,0,0-.07-5.39,6.34,6.34,0,0,0-2.32-3.76c-1.21-1-3.07-1.45-5.58-1.45a37,37,0,0,0-7.4.76L349.07,96.11H330.38Z"/><path class="cls-3" d="M490,97.87a30.22,30.22,0,0,1-11.54-2,21.47,21.47,0,0,1-8.1-5.64,24.31,24.31,0,0,1-4.82-8.6,34.84,34.84,0,0,1-1.64-11,48.53,48.53,0,0,1,2.45-15.06,43,43,0,0,1,7.21-13.54,38.5,38.5,0,0,1,11.67-9.85,32.05,32.05,0,0,1,15.8-3.83,30.37,30.37,0,0,1,11.48,2A21.35,21.35,0,0,1,520.7,36a24.44,24.44,0,0,1,4.84,8.6,35.14,35.14,0,0,1,1.63,11,49.64,49.64,0,0,1-2.39,15.06,43.6,43.6,0,0,1-7,13.54A36.78,36.78,0,0,1,506.15,94,32.91,32.91,0,0,1,490,97.87Zm9.28-53.69A11.69,11.69,0,0,0,492,46.56a20.5,20.5,0,0,0-5.27,6,29.42,29.42,0,0,0-3.19,8,33.86,33.86,0,0,0-1.07,8.21q0,6.4,2,9.85c1.33,2.3,3.76,3.45,7.27,3.45a11.69,11.69,0,0,0,7.28-2.38,20.47,20.47,0,0,0,5.26-6,29.44,29.44,0,0,0,3.2-8,34.38,34.38,0,0,0,1.07-8.22q0-6.39-2-9.84T499.32,44.18Z"/><path class="cls-3" d="M582.61,46.19q-2.52-.63-5-1.2a34.87,34.87,0,0,0-7.21-.56,26.76,26.76,0,0,0-3.89.31,31.14,31.14,0,0,0-3.51.69L550.87,96.11H532.18l15.05-62.47q5.4-1.76,12.11-3.32a66.33,66.33,0,0,1,15.12-1.57,49,49,0,0,1,7,.56,27,27,0,0,1,6.71,1.82Z"/><path class="cls-3" d="M598.79,33.14q2.13-.63,4.58-1.44a55.14,55.14,0,0,1,5.52-1.51,67.22,67.22,0,0,1,6.9-1.13,79,79,0,0,1,8.84-.44,28.35,28.35,0,0,1,10,1.51,22,22,0,0,1,7.21,4.52A62.68,62.68,0,0,1,651,30.32a30.8,30.8,0,0,1,10.72-1.7,29.08,29.08,0,0,1,10.1,1.57,18,18,0,0,1,7,4.52,17.67,17.67,0,0,1,4,7,30.29,30.29,0,0,1,1.26,9,38.33,38.33,0,0,1-.32,4.77,40.59,40.59,0,0,1-.94,5L674.3,96.11H655.61l8.28-34.87c.25-1.17.52-2.49.82-4a22.32,22.32,0,0,0,.44-4.33,11.16,11.16,0,0,0-1.63-6.08q-1.63-2.58-6.4-2.58a13.69,13.69,0,0,0-5,.94,41.08,41.08,0,0,0-4.26,1.95,8.18,8.18,0,0,1,.25,1.88V50.7a38.33,38.33,0,0,1-.32,4.77,42.54,42.54,0,0,1-.94,5L638.3,96.11H619.61l8.28-34.87c.25-1.17.52-2.49.82-4a22.32,22.32,0,0,0,.44-4.33,11.16,11.16,0,0,0-1.63-6.08q-1.63-2.58-6.4-2.58a26.62,26.62,0,0,0-3.39.19c-.92.13-2,.32-3.26.57L602.3,96.11H583.61Z"/><path class="cls-3" d="M751.57,67.64a41.69,41.69,0,0,0-1,14.36,51.11,51.11,0,0,0,2.89,12.86l-16.69,2.38c-.5-1-1-2-1.38-2.89s-.84-2-1.25-3.13A33.67,33.67,0,0,1,726.36,96a23.26,23.26,0,0,1-9.53,1.89,24.1,24.1,0,0,1-10.73-2.2,20.13,20.13,0,0,1-7.27-5.9,23.38,23.38,0,0,1-4.08-8.65,42.9,42.9,0,0,1-1.25-10.6,43.36,43.36,0,0,1,3.07-16.31,41.54,41.54,0,0,1,8.53-13.36,39.75,39.75,0,0,1,12.86-9,39.24,39.24,0,0,1,16-3.27c.75,0,2.07.05,4,.13s4,.27,6.46.56a63.9,63.9,0,0,1,7.66,1.45,40.06,40.06,0,0,1,7.65,2.76Zm-13-23.09c-1.09-.16-2.07-.29-2.95-.37s-1.94-.13-3.2-.13a15.58,15.58,0,0,0-8,2.14A22.74,22.74,0,0,0,718,51.77a26.45,26.45,0,0,0-4.33,8,28.37,28.37,0,0,0-1.57,9.41q0,6,2,9.53t7.4,3.52a11.74,11.74,0,0,0,5.2-1.13,19.3,19.3,0,0,0,5-3.77c.16-2.09.44-4.28.81-6.58s.78-4.41,1.2-6.34Z"/><path class="cls-3" d="M781.43,13.7l19.44-3L796.1,30.13h20.83l-3.77,15.3H792.47L787,68.51a29.49,29.49,0,0,0-.94,5.4,8.88,8.88,0,0,0,.62,4.33,5.83,5.83,0,0,0,2.83,2.82,12.44,12.44,0,0,0,5.51,1,30.2,30.2,0,0,0,5.84-.56,43.36,43.36,0,0,0,5.7-1.57l1.38,14.3a66.66,66.66,0,0,1-8.15,2.38,47.23,47.23,0,0,1-10.41,1q-8.66,0-13.42-2.57a14.84,14.84,0,0,1-6.78-7,22.31,22.31,0,0,1-1.75-10.22,65.26,65.26,0,0,1,1.75-12.17Z"/><path class="cls-3" d="M834.24,96.11H815.67l15.68-66H850Zm9-74a11.5,11.5,0,0,1-7-2.32q-3.13-2.33-3.13-7.09a11.74,11.74,0,0,1,1.06-4.95,13.12,13.12,0,0,1,2.82-4A13.85,13.85,0,0,1,841.07,1a12.36,12.36,0,0,1,5-1,11.56,11.56,0,0,1,7,2.32c2.09,1.55,3.14,3.92,3.14,7.09a11.76,11.76,0,0,1-1.07,5,13.2,13.2,0,0,1-2.82,4,13.56,13.56,0,0,1-4.08,2.7A12.34,12.34,0,0,1,843.27,22.1Z"/><path class="cls-3" d="M867.6,96.11q-3.26-12.54-5.89-29.29a349.31,349.31,0,0,1-3.64-36.69h19.32c.08,3.26.2,6.84.37,10.72s.38,7.8.63,11.73.54,7.76.88,11.48.71,7.09,1.13,10.1c1.84-2.51,3.9-5.6,6.21-9.28s4.53-7.53,6.71-11.55,4.18-8,6-12.1a88.7,88.7,0,0,0,4.26-11.1h19.82a161.53,161.53,0,0,1-8.09,18.31Q910.5,57.86,905,66.63T893.75,83.06q-5.7,7.66-10.59,13Z"/><path class="cls-3" d="M949.51,97.87a30.25,30.25,0,0,1-11.54-2,21.43,21.43,0,0,1-8.09-5.64,24.48,24.48,0,0,1-4.83-8.6,34.85,34.85,0,0,1-1.63-11,48.53,48.53,0,0,1,2.45-15.06,43,43,0,0,1,7.21-13.54,38.5,38.5,0,0,1,11.67-9.85,32,32,0,0,1,15.8-3.83,30.4,30.4,0,0,1,11.48,2A21.35,21.35,0,0,1,980.18,36a24.57,24.57,0,0,1,4.83,8.6,34.85,34.85,0,0,1,1.63,11,49.63,49.63,0,0,1-2.38,15.06,43.41,43.41,0,0,1-7,13.54A36.74,36.74,0,0,1,965.63,94,32.92,32.92,0,0,1,949.51,97.87Zm9.28-53.69a11.66,11.66,0,0,0-7.27,2.38,20.5,20.5,0,0,0-5.27,6,29.76,29.76,0,0,0-3.2,8A34.36,34.36,0,0,0,942,68.76q0,6.4,2,9.85t7.28,3.45a11.66,11.66,0,0,0,7.27-2.38,20.5,20.5,0,0,0,5.27-6,29.76,29.76,0,0,0,3.2-8,34.38,34.38,0,0,0,1.07-8.22q0-6.39-2-9.84C964.73,45.33,962.31,44.18,958.79,44.18Z"/><path class="cls-3" d="M1013.11,82.81c4.26,0,7.19-.6,8.78-1.82s2.38-2.52,2.38-3.95a5.78,5.78,0,0,0-.44-2.38,5.39,5.39,0,0,0-1.44-1.88,15,15,0,0,0-2.76-1.82q-1.75-.94-4.52-2.2a63.39,63.39,0,0,1-5.89-2.94,20.49,20.49,0,0,1-4.83-3.77,16.59,16.59,0,0,1-3.26-5,17.12,17.12,0,0,1-1.19-6.71q0-10.17,7.46-16.06t21.76-5.9a44.37,44.37,0,0,1,20.58,4.77l-6.4,13.92a40.34,40.34,0,0,0-6.77-2.63,27.91,27.91,0,0,0-8.16-1.25,32.65,32.65,0,0,0-3.45.18,10.84,10.84,0,0,0-3.13.82,5.67,5.67,0,0,0-2.32,1.76,4.72,4.72,0,0,0-.88,3,4.18,4.18,0,0,0,1.94,3.77,59.84,59.84,0,0,0,5.46,3q4.89,2.39,8.15,4.39a22.21,22.21,0,0,1,5.21,4.26,14.24,14.24,0,0,1,2.82,5.15,23.51,23.51,0,0,1,.88,6.77,19.73,19.73,0,0,1-1.69,7.9,18.43,18.43,0,0,1-5.34,6.9,28.42,28.42,0,0,1-9.28,4.89,42.89,42.89,0,0,1-13.55,1.89,56.4,56.4,0,0,1-8.84-.63,49.29,49.29,0,0,1-7-1.57,37.42,37.42,0,0,1-5.08-1.94c-1.38-.67-2.45-1.21-3.2-1.63l6.4-14.3a58.16,58.16,0,0,0,6.65,3.13A28.21,28.21,0,0,0,1013.11,82.81Z"/><path class="cls-3" d="M318,230.09q-9.4,0-13.79-4.14t-4.39-12a64.35,64.35,0,0,1,1.75-13.17L315,144.91l12.17-2-4.89,20.19h22.2l-2.38,9.79h-22.2L313,201.74A42.09,42.09,0,0,0,311.44,212q0,4.14,2.26,6t7.53,1.82a22.29,22.29,0,0,0,7.15-1.19,38.09,38.09,0,0,0,5.39-2.2l.88,9.91a30.1,30.1,0,0,1-6.4,2.45A36.7,36.7,0,0,1,318,230.09Z"/><path class="cls-3" d="M371.78,230a30.25,30.25,0,0,1-11-1.82,21.73,21.73,0,0,1-7.78-5,20,20,0,0,1-4.64-7.46,27,27,0,0,1-1.5-9,54.7,54.7,0,0,1,2.63-16.94A46.36,46.36,0,0,1,357,175.27a36.47,36.47,0,0,1,11.91-10,33.63,33.63,0,0,1,15.93-3.7,26.45,26.45,0,0,1,8.85,1.31,16.39,16.39,0,0,1,6,3.58,14.52,14.52,0,0,1,3.45,5.2,17,17,0,0,1,1.13,6.09,21.33,21.33,0,0,1-2.14,10,20.87,20.87,0,0,1-5.64,6.84,25.84,25.84,0,0,1-8.22,4.26,72,72,0,0,1-9.78,2.38,92.58,92.58,0,0,1-10.29,1.2c-3.47.21-6.75.39-9.84.56a12.6,12.6,0,0,0-.13,1.63v1a20.92,20.92,0,0,0,.69,5.45,10.24,10.24,0,0,0,2.57,4.52,12.8,12.8,0,0,0,5.21,3.07,27.78,27.78,0,0,0,8.72,1.13,28.69,28.69,0,0,0,4.95-.44,41.66,41.66,0,0,0,4.89-1.13q2.33-.69,4.14-1.38a9.42,9.42,0,0,0,2.57-1.32l1,9.91a40.42,40.42,0,0,1-8.09,2.95A48.61,48.61,0,0,1,371.78,230Zm-11.92-35.88q7.27-.24,13.3-.94a42.07,42.07,0,0,0,10.41-2.38,16.48,16.48,0,0,0,6.84-4.58,11.22,11.22,0,0,0,2.44-7.52,7.06,7.06,0,0,0-.44-2.39,6.16,6.16,0,0,0-1.5-2.32,8,8,0,0,0-3-1.75,13.57,13.57,0,0,0-4.64-.7,18.3,18.3,0,0,0-8.22,1.89,24.81,24.81,0,0,0-6.84,5,30.14,30.14,0,0,0-5.14,7.15A38.72,38.72,0,0,0,359.86,194.08Z"/><path class="cls-3" d="M426.22,199.6q-.63,2.76-1.26,5.4a21.56,21.56,0,0,0-.63,5,10.26,10.26,0,0,0,2.08,6.77c1.37,1.67,3.95,2.72,7.71,3.13l-2.64,9.54a25.1,25.1,0,0,1-8.71-1.57,15.65,15.65,0,0,1-5.77-3.82,14.42,14.42,0,0,1-3.2-5.65,24.18,24.18,0,0,1-1-7.15,37.54,37.54,0,0,1,.51-6c.33-2.09.79-4.27,1.38-6.52L430.48,133l12.17-2Z"/><path class="cls-3" d="M470.25,230a30.25,30.25,0,0,1-11-1.82,21.73,21.73,0,0,1-7.78-5,20,20,0,0,1-4.64-7.46,27,27,0,0,1-1.51-9,54.7,54.7,0,0,1,2.64-16.94,46.34,46.34,0,0,1,7.52-14.42,36.61,36.61,0,0,1,11.92-10,33.6,33.6,0,0,1,15.93-3.7,26.35,26.35,0,0,1,8.84,1.31,16.23,16.23,0,0,1,6,3.58,14.27,14.27,0,0,1,3.45,5.2,16.77,16.77,0,0,1,1.13,6.09,21.33,21.33,0,0,1-2.13,10,20.87,20.87,0,0,1-5.64,6.84,26,26,0,0,1-8.22,4.26,72.73,72.73,0,0,1-9.78,2.38,92.58,92.58,0,0,1-10.29,1.2c-3.47.21-6.75.39-9.85.56a14.31,14.31,0,0,0-.12,1.63v1a20.92,20.92,0,0,0,.69,5.45A10.24,10.24,0,0,0,460,215.6a12.76,12.76,0,0,0,5.2,3.07,27.87,27.87,0,0,0,8.72,1.13,28.8,28.8,0,0,0,5-.44,41.66,41.66,0,0,0,4.89-1.13q2.32-.69,4.14-1.38a9.42,9.42,0,0,0,2.57-1.32l1,9.91a40.18,40.18,0,0,1-8.09,2.95A48.53,48.53,0,0,1,470.25,230Zm-11.92-35.88q7.28-.24,13.3-.94A42.07,42.07,0,0,0,482,190.76a16.51,16.51,0,0,0,6.83-4.58,11.23,11.23,0,0,0,2.45-7.52,7.31,7.31,0,0,0-.44-2.39,6.19,6.19,0,0,0-1.51-2.32,8,8,0,0,0-2.94-1.75,13.63,13.63,0,0,0-4.65-.7,18.29,18.29,0,0,0-8.21,1.89,24.81,24.81,0,0,0-6.84,5,30.14,30.14,0,0,0-5.14,7.15A38.72,38.72,0,0,0,458.33,194.08Z"/><path class="cls-3" d="M510.26,205a52.83,52.83,0,0,1,2.57-16.43,41.53,41.53,0,0,1,7.59-13.93,36.49,36.49,0,0,1,29-13.17,54.11,54.11,0,0,1,7.9.56,25.26,25.26,0,0,1,7.15,2.2L560.06,174a18,18,0,0,0-4.71-1.75,31.53,31.53,0,0,0-7-.63,22.45,22.45,0,0,0-11,2.7,26.87,26.87,0,0,0-8.34,7.15,32.26,32.26,0,0,0-5.27,10.28,40.55,40.55,0,0,0-1.82,12.11,25.92,25.92,0,0,0,.7,6.15,12.7,12.7,0,0,0,2.44,5.08,11.77,11.77,0,0,0,4.7,3.44,19.15,19.15,0,0,0,7.47,1.26,26.94,26.94,0,0,0,4.76-.44,41.51,41.51,0,0,0,4.65-1.07,38.39,38.39,0,0,0,3.82-1.31,9.61,9.61,0,0,0,2.45-1.32l1,9.91a30.3,30.3,0,0,1-7.4,3A41.41,41.41,0,0,1,535.09,230a29.15,29.15,0,0,1-10.66-1.82,20.92,20.92,0,0,1-7.77-5.14,22.18,22.18,0,0,1-4.77-7.9A29.89,29.89,0,0,1,510.26,205Z"/><path class="cls-3" d="M575.48,228.33H563.82L579.5,163.1h11.66Zm13.55-77a6.91,6.91,0,0,1-4.83-1.76,6.27,6.27,0,0,1-1.94-4.89,8.18,8.18,0,0,1,2.51-6.33,8.08,8.08,0,0,1,5.64-2.32,7,7,0,0,1,4.89,1.82,6.49,6.49,0,0,1,2,5.08,7.74,7.74,0,0,1-2.63,6.08A8.41,8.41,0,0,1,589,151.31Z"/><path class="cls-3" d="M606.72,228.33H595.05l15.06-62.72a92.55,92.55,0,0,1,12.48-2.82,77.25,77.25,0,0,1,12-1.07,27,27,0,0,1,9.72,1.57,17.35,17.35,0,0,1,6.58,4.27,16.63,16.63,0,0,1,3.7,6.52,27.74,27.74,0,0,1,1.2,8.34,38.65,38.65,0,0,1-.51,6.08c-.33,2.13-.75,4.29-1.25,6.46l-8,33.37H634.32l7.4-30.86q.87-3.51,1.69-7.15a31.71,31.71,0,0,0,.81-6.9,12.68,12.68,0,0,0-2.75-8.34c-1.85-2.21-5.27-3.32-10.29-3.32a49.79,49.79,0,0,0-6.15.37,29.26,29.26,0,0,0-5,1Z"/><path class="cls-3" d="M667.18,205a52.83,52.83,0,0,1,2.57-16.43,41.53,41.53,0,0,1,7.59-13.93,36.49,36.49,0,0,1,29-13.17,54.11,54.11,0,0,1,7.9.56,25.26,25.26,0,0,1,7.15,2.2L717,174a18,18,0,0,0-4.71-1.75,31.46,31.46,0,0,0-7-.63,22.45,22.45,0,0,0-11,2.7,26.87,26.87,0,0,0-8.34,7.15,32.46,32.46,0,0,0-5.27,10.28,40.55,40.55,0,0,0-1.81,12.11,25.93,25.93,0,0,0,.69,6.15A12.7,12.7,0,0,0,682,215.1a11.73,11.73,0,0,0,4.71,3.44,19.06,19.06,0,0,0,7.46,1.26,27.13,27.13,0,0,0,4.77-.44,41.84,41.84,0,0,0,4.64-1.07,38.39,38.39,0,0,0,3.82-1.31,9.61,9.61,0,0,0,2.45-1.32l1,9.91a30.13,30.13,0,0,1-7.4,3A41.39,41.39,0,0,1,692,230a29.17,29.17,0,0,1-10.67-1.82,21,21,0,0,1-7.77-5.14,22.33,22.33,0,0,1-4.77-7.9A29.89,29.89,0,0,1,667.18,205Z"/><path class="cls-3" d="M744.45,230q-10.29,0-16.12-6.08t-5.83-16.75a61.28,61.28,0,0,1,2.07-15.3,48.11,48.11,0,0,1,6.58-14.8,37.21,37.21,0,0,1,11.67-11.17q7.15-4.4,17.31-4.39t16.12,6.09q5.84,6.08,5.83,16.74A61.28,61.28,0,0,1,780,199.6a48.16,48.16,0,0,1-6.58,14.81,37.29,37.29,0,0,1-11.67,11.16Q754.61,230,744.45,230Zm2-9.91a16.67,16.67,0,0,0,10.09-3.26,28.45,28.45,0,0,0,7.53-8.34,42.47,42.47,0,0,0,4.7-11.23,46.32,46.32,0,0,0,1.64-11.92c0-4.26-.93-7.65-2.76-10.16s-5-3.76-9.54-3.76a16.7,16.7,0,0,0-10.1,3.26A28.54,28.54,0,0,0,740.5,183a42.82,42.82,0,0,0-4.71,11.23,46.73,46.73,0,0,0-1.63,11.92q0,6.39,2.76,10.16T746.46,220.05Z"/><path class="cls-3" d="M436.85,44.74a26.76,26.76,0,0,1,3.89-.31A34.94,34.94,0,0,1,448,45q2.44.57,4.95,1.2l5.52-15.06a26.93,26.93,0,0,0-6.71-1.82,48.89,48.89,0,0,0-7-.56,66.3,66.3,0,0,0-15.11,1.57q-6.72,1.56-12.11,3.32l-5,20.7c-.12.43-.26.86-.37,1.3l-9.69,40.47h18.69l5.15-21.44,21-.24,3.46-15.24.65-2.69h0l0-.18-10.67.18H430.68l2.66-11.07A31.14,31.14,0,0,1,436.85,44.74Z"/></g></g></svg>