<svg xmlns="http://www.w3.org/2000/svg" viewBox="0 0 616 220.59"><defs><style>.cls-1{fill:#2e314c;}.cls-2{font-size:82px;fill:#f7f7f7;font-family:Ubuntu-BoldItalic, Ubuntu;font-weight:700;font-style:italic;}.cls-3{fill:#fbb549;}.cls-4{fill:#00a3d8;}.cls-5{fill:#fff;}</style></defs><g id="Capa_2" data-name="Capa 2"><g id="Secciones"><path class="cls-1" d="M522.66,87.27H103.27C26.52,87.27,14.93,165.43,0,220.38l263.58,0H505.86c35.45,0,65.13-28.19,66.11-64,0-.87,0-1.75,0-2.63C572,117,549.89,87.27,522.66,87.27Z"/><text class="cls-2" transform="translate(130.18 175.8)">el tiempo</text><path class="cls-3" d="M39.78,153.59h0a66.4,66.4,0,0,1,65.07-66.32s-.06,0-.09,0C27.26,86.38,15.7,161.93,0,220.59l99.63-.21c.51-.06,1.16,0,1.67-.06A67.07,67.07,0,0,1,39.78,153.59Z"/><path class="cls-4" d="M615.74,65.87c-3.18,36.35-35.27,65.87-71.63,65.87S480.83,102.22,484,65.87,519.28,0,555.64,0,618.93,29.51,615.74,65.87Z"/><path class="cls-5" d="M532.13,44.07c2.33-5.25,3.52-12.9,13.69-12.9h29.31c-1.92,6.38-5.85,12.9-15.42,12.9Z"/><path class="cls-5" d="M545.42,73.84A10.16,10.16,0,0,1,535.81,82a6.68,6.68,0,0,1-6.74-8.18,10.17,10.17,0,0,1,9.62-8.17C543.22,65.6,546.22,69.32,545.42,73.84Z"/><path class="cls-5" d="M527,84.81l-5.32,11.7s4.19.93,14.49.93c23.39,0,38.81-7.51,38.81-24.33s-16.35-22.93-35.09-22.93l-9.84.47-5.45,12.16c-.13,0,5.45-.46,11.57-.46,17.28,0,24.79,4.18,24.79,10.76s-6,12.17-25.26,12.17C531.4,85.28,526.75,84.81,527,84.81Z"/></g></g></svg>