<svg xmlns="http://www.w3.org/2000/svg" viewBox="0 0 637.01 344.58"><defs><style>.cls-1{fill:#fff;}</style></defs><g id="Capa_2" data-name="Capa 2"><g id="Tipo"><path class="cls-1" d="M252,337.76q-1-19-2.19-37.28t-2.69-36.31H120.38q-9.76,18-20.47,36.31T79.45,337.76H0q31.67-54.57,59.22-100.89t53.12-87.25q25.59-40.92,50-77.72T212,0h67.74q7.8,35.1,14.86,77.74T307.79,165q6.09,44.58,11.2,89.19t9.5,83.58ZM229.56,74.09q-20.46,32.64-40.21,64.81t-38.26,65.8h91.14q-2.44-29.72-5.12-63.35T229.56,74.09Z"/><path class="cls-1" d="M605.32,227.13a161.78,161.78,0,0,0-3.89,55.8q2.93,28,11.2,49.95l-64.82,9.27q-2.92-5.85-5.36-11.21t-4.88-12.19a130,130,0,0,1-30.21,18.52q-16.58,7.32-37,7.31-24.37,0-41.68-8.52a78.62,78.62,0,0,1-28.26-22.92,91.61,91.61,0,0,1-15.84-33.62A174.84,174.84,0,0,1,391.61,175a161.38,161.38,0,0,1,33.13-51.91,154.62,154.62,0,0,1,50-34.83q28.76-12.67,62.38-12.68,4.39,0,15.36.49t25.09,2.19a241.77,241.77,0,0,1,29.74,5.61A154.53,154.53,0,0,1,637,94.56Zm-50.68-89.68q-6.35-1-11.46-1.47t-12.43-.49a61.1,61.1,0,0,0-30.95,8.29,88.63,88.63,0,0,0-25.09,21.7,103.06,103.06,0,0,0-16.82,30.93A110.57,110.57,0,0,0,451.8,233q0,23.4,7.8,37t28.75,13.64a45.47,45.47,0,0,0,20.23-4.39q9-4.38,19.25-14.62,1-12.18,3.17-25.58t4.63-24.62Z"/></g></g></svg>