<svg xmlns="http://www.w3.org/2000/svg" viewBox="0 0 172.29 174.25"><defs><style>.cls-1{fill:#00a3d8;}.cls-2{fill:#fff;}.cls-3{fill:#e22d65;}</style></defs><g id="Capa_2" data-name="Capa 2"><g id="Versiones_negativo_positivo" data-name="Versiones/negativo/positivo"><path class="cls-1" d="M152.81,98c-3.68,42.09-40.84,76.26-82.93,76.26S-3.39,140.08.3,98,41.13,21.74,83.22,21.74,156.49,55.9,152.81,98Z"/><path class="cls-2" d="M55.45,74.87c2.73-6.16,4.14-15.12,16.07-15.12H105.9C103.64,67.23,99,74.87,87.81,74.87Z"/><path class="cls-2" d="M71.05,109.8a11.93,11.93,0,0,1-11.28,9.59c-5.3,0-8.84-4.29-7.9-9.59a11.93,11.93,0,0,1,11.28-9.59C68.46,100.13,72,104.5,71.05,109.8Z"/><path class="cls-2" d="M49.37,122.67l-6.24,13.72s4.92,1.09,17,1.09c27.45,0,45.54-8.81,45.54-28.53S86.49,82,64.5,82L53,82.59l-6.4,14.27c-.15,0,6.4-.55,13.57-.55,20.28,0,29.09,4.92,29.09,12.64s-7.1,14.26-29.63,14.26C54.6,123.21,49.14,122.67,49.37,122.67Z"/><circle class="cls-3" cx="142.14" cy="30.16" r="30.16"/><path class="cls-2" d="M141.58,43.5h-6.1l5.15-21.69h6.14Zm3-24.33a3.79,3.79,0,0,1-2.31-.76,2.7,2.7,0,0,1-1-2.33,3.91,3.91,0,0,1,.35-1.63,4.3,4.3,0,0,1,2.27-2.2,4,4,0,0,1,1.63-.33,3.74,3.74,0,0,1,2.3.76,2.71,2.71,0,0,1,1,2.33,3.76,3.76,0,0,1-.35,1.63,4.29,4.29,0,0,1-.92,1.32,4.65,4.65,0,0,1-1.34.88A4.06,4.06,0,0,1,144.55,19.17Z"/></g></g></svg>