<svg xmlns="http://www.w3.org/2000/svg" viewBox="0 0 1620.48 209.29"><defs><style>.cls-1{fill:#00a3d8;}.cls-2{fill:#fff;}.cls-3{fill:#e22d65;}.cls-4{fill:#2e314c;}</style></defs><g id="Capa_2" data-name="Capa 2"><g id="Versiones_negativo_positivo" data-name="Versiones/negativo/positivo"><path class="cls-1" d="M1601,132.21c-3.68,42.1-40.84,76.26-82.93,76.26s-73.27-34.16-69.59-76.26S1489.32,56,1531.41,56,1604.68,90.12,1601,132.21Z"/><path class="cls-2" d="M1503.64,109.09c2.73-6.16,4.14-15.12,16.07-15.12h34.38c-2.26,7.48-6.86,15.12-18.09,15.12Z"/><path class="cls-2" d="M1519.24,144a11.93,11.93,0,0,1-11.28,9.6c-5.31,0-8.84-4.29-7.9-9.6a11.93,11.93,0,0,1,11.28-9.59C1516.65,134.36,1520.17,138.72,1519.24,144Z"/><path class="cls-2" d="M1497.56,156.89l-6.24,13.72s4.92,1.1,17,1.1c27.45,0,45.54-8.82,45.54-28.54s-19.18-26.9-41.17-26.9l-11.54.54-6.4,14.27c-.15,0,6.4-.54,13.57-.54,20.27,0,29.09,4.91,29.09,12.63s-7.1,14.27-29.63,14.27C1502.79,157.44,1497.33,156.89,1497.56,156.89Z"/><circle class="cls-3" cx="1590.33" cy="64.38" r="30.16"/><path class="cls-2" d="M1589.77,77.72h-6.1L1588.82,56H1595Zm3-24.32a3.8,3.8,0,0,1-2.31-.77,2.69,2.69,0,0,1-1-2.33,3.87,3.87,0,0,1,.35-1.62,4.15,4.15,0,0,1,.93-1.32,4.42,4.42,0,0,1,1.34-.89,4,4,0,0,1,1.62-.33,3.81,3.81,0,0,1,2.31.76,2.71,2.71,0,0,1,1,2.33,3.76,3.76,0,0,1-.35,1.63,4.29,4.29,0,0,1-.92,1.32,4.68,4.68,0,0,1-1.34.89A4.09,4.09,0,0,1,1592.74,53.4Z"/><path class="cls-1" d="M142.83,138c-3.44,39.35-38.17,71.28-77.51,71.28S-3.17,177.36.28,138,38.45,66.74,77.79,66.74,146.27,98.67,142.83,138Z"/><path class="cls-2" d="M52.35,114.42c2.52-5.68,3.81-14,14.82-14H98.89c-2.09,6.9-6.33,14-16.69,14Z"/><path class="cls-2" d="M66.74,146.64a11,11,0,0,1-10.41,8.85c-4.89,0-8.15-4-7.29-8.85a11,11,0,0,1,10.41-8.84C64.35,137.73,67.6,141.75,66.74,146.64Z"/><path class="cls-2" d="M46.74,158.51,41,171.17s4.53,1,15.68,1c25.31,0,42-8.13,42-26.33S81,121,60.69,121l-10.64.5-5.9,13.17c-.14,0,5.9-.51,12.52-.51,18.7,0,26.82,4.53,26.82,11.65S77,159,56.16,159C51.56,159,46.52,158.51,46.74,158.51Z"/><path class="cls-4" d="M184.91,123.43H174l9.25-38.92h11Zm5.33-43.66a6.73,6.73,0,0,1-4.14-1.37,4.83,4.83,0,0,1-1.85-4.18,6.91,6.91,0,0,1,.63-2.92,7.67,7.67,0,0,1,1.66-2.37A8.15,8.15,0,0,1,189,67.34a7.33,7.33,0,0,1,2.92-.59A6.8,6.8,0,0,1,196,68.12a4.84,4.84,0,0,1,1.85,4.18,6.87,6.87,0,0,1-.63,2.92,7.72,7.72,0,0,1-4.07,4A7.16,7.16,0,0,1,190.24,79.77Z"/><path class="cls-4" d="M203.86,86.29c.83-.25,1.76-.53,2.77-.86s2.15-.61,3.41-.88a41.44,41.44,0,0,1,4.21-.67,49.11,49.11,0,0,1,5.29-.26q8.73,0,12,5t1.11,13.77l-5,21h-11l4.89-20.57c.29-1.28.53-2.53.7-3.73a9.11,9.11,0,0,0,0-3.19,3.72,3.72,0,0,0-1.37-2.22,5.29,5.29,0,0,0-3.29-.85,21.89,21.89,0,0,0-4.36.45l-7.18,30.11h-11Z"/><path class="cls-4" d="M289.09,124.47a18,18,0,0,1-6.81-1.18,12.51,12.51,0,0,1-4.77-3.33,14.32,14.32,0,0,1-2.85-5.07,20.4,20.4,0,0,1-1-6.48,28.66,28.66,0,0,1,1.45-8.88,25.47,25.47,0,0,1,4.25-8,22.89,22.89,0,0,1,6.88-5.81,19,19,0,0,1,9.33-2.26,17.94,17.94,0,0,1,6.77,1.19A12.58,12.58,0,0,1,307.18,88,14.32,14.32,0,0,1,310,93.06a20.63,20.63,0,0,1,1,6.47,29.2,29.2,0,0,1-1.41,8.88,25.51,25.51,0,0,1-4.14,8,21.78,21.78,0,0,1-6.84,5.81A19.38,19.38,0,0,1,289.09,124.47Zm5.47-31.67a6.92,6.92,0,0,0-4.29,1.4,12.2,12.2,0,0,0-3.11,3.56,17.06,17.06,0,0,0-1.88,4.7,20.18,20.18,0,0,0-.63,4.84,11.67,11.67,0,0,0,1.18,5.81q1.19,2,4.29,2a6.87,6.87,0,0,0,4.29-1.41,12,12,0,0,0,3.11-3.55,17.53,17.53,0,0,0,1.89-4.7,20.26,20.26,0,0,0,.63-4.85,11.69,11.69,0,0,0-1.19-5.81Q297.66,92.81,294.56,92.8Z"/><path class="cls-4" d="M343.7,94c-1-.24-2-.48-2.93-.7a20.45,20.45,0,0,0-4.25-.33,16.17,16.17,0,0,0-2.29.18,17.36,17.36,0,0,0-2.08.41L325,123.43H314l8.88-36.85q3.18-1,7.14-2a39.13,39.13,0,0,1,8.92-.92A28.5,28.5,0,0,1,343,84a15.61,15.61,0,0,1,4,1.07Z"/><path class="cls-4" d="M353.24,86.29c.84-.25,1.74-.53,2.7-.86s2.05-.61,3.26-.88a38.4,38.4,0,0,1,4.07-.67,46.84,46.84,0,0,1,5.22-.26,16.69,16.69,0,0,1,5.88.89,13.19,13.19,0,0,1,4.26,2.66,37.84,37.84,0,0,1,5.43-2.55,18.36,18.36,0,0,1,6.33-1,17,17,0,0,1,6,.93,10.2,10.2,0,0,1,6.47,6.8,17.78,17.78,0,0,1,.74,5.3,23.44,23.44,0,0,1-.18,2.81,23.71,23.71,0,0,1-.56,3l-5,21h-11l4.88-20.57c.15-.69.31-1.47.48-2.33a13.14,13.14,0,0,0,.26-2.55,6.57,6.57,0,0,0-1-3.59c-.64-1-1.9-1.52-3.78-1.52a8,8,0,0,0-3,.56,26.14,26.14,0,0,0-2.51,1.14,4.6,4.6,0,0,1,.15,1.11v1a23.54,23.54,0,0,1-.19,2.81,25.63,25.63,0,0,1-.55,3l-5,21h-11l4.88-20.57c.15-.69.31-1.47.48-2.33a13.14,13.14,0,0,0,.26-2.55,6.57,6.57,0,0,0-1-3.59c-.64-1-1.9-1.52-3.77-1.52a15.87,15.87,0,0,0-2,.11c-.55.08-1.19.19-1.93.34l-7.17,30.11h-11Z"/><path class="cls-4" d="M443.38,106.64a24.47,24.47,0,0,0-.6,8.47,30.41,30.41,0,0,0,1.71,7.58l-9.85,1.41c-.29-.59-.56-1.16-.81-1.7s-.49-1.16-.74-1.85a19.82,19.82,0,0,1-4.59,2.81,13.78,13.78,0,0,1-5.62,1.11,14.1,14.1,0,0,1-6.33-1.3,11.94,11.94,0,0,1-4.29-3.47,14.12,14.12,0,0,1-2.41-5.11,26.5,26.5,0,0,1,1.08-15.87,24.2,24.2,0,0,1,5-7.88A23.32,23.32,0,0,1,433,83.62c.45,0,1.23,0,2.34.08s2.38.16,3.81.33a37.26,37.26,0,0,1,4.51.85,23.74,23.74,0,0,1,4.51,1.63ZM435.68,93c-.64-.1-1.22-.17-1.74-.22s-1.15-.08-1.89-.08a9.28,9.28,0,0,0-4.7,1.26,13.71,13.71,0,0,0-3.81,3.29A16,16,0,0,0,421,102a16.75,16.75,0,0,0-.93,5.55,11.35,11.35,0,0,0,1.19,5.63c.79,1.38,2.24,2.07,4.37,2.07a6.88,6.88,0,0,0,3.07-.67,11.22,11.22,0,0,0,2.92-2.22c.1-1.23.26-2.52.48-3.88s.46-2.6.7-3.74Z"/><path class="cls-4" d="M461,74.82,472.46,73l-2.82,11.47h12.29l-2.22,9H467.5l-3.26,13.61a18.26,18.26,0,0,0-.55,3.19,5.17,5.17,0,0,0,.37,2.55,3.39,3.39,0,0,0,1.66,1.66,7.32,7.32,0,0,0,3.26.6,17.68,17.68,0,0,0,3.44-.34,26.08,26.08,0,0,0,3.37-.92l.81,8.43a37.42,37.42,0,0,1-4.81,1.41,28.15,28.15,0,0,1-6.14.59c-3.41,0-6-.5-7.92-1.52a8.79,8.79,0,0,1-4-4.14,13.22,13.22,0,0,1-1-6,39.06,39.06,0,0,1,1-7.18Z"/><path class="cls-4" d="M492.14,123.43H481.19l9.25-38.92h11Zm5.33-43.66a6.78,6.78,0,0,1-4.15-1.37,4.86,4.86,0,0,1-1.85-4.18,6.91,6.91,0,0,1,.63-2.92,7.87,7.87,0,0,1,1.67-2.37,8.23,8.23,0,0,1,2.4-1.59,7.41,7.41,0,0,1,2.93-.59,6.82,6.82,0,0,1,4.14,1.37,4.87,4.87,0,0,1,1.85,4.18,6.87,6.87,0,0,1-.63,2.92,7.72,7.72,0,0,1-1.66,2.37,8,8,0,0,1-2.41,1.59A7.19,7.19,0,0,1,497.47,79.77Z"/><path class="cls-4" d="M511.82,123.43q-1.92-7.4-3.47-17.28a204.16,204.16,0,0,1-2.15-21.64h11.4c0,1.92.12,4,.22,6.33s.22,4.6.37,6.92.32,4.57.52,6.77.41,4.18.66,6Q521,108.26,523,105t4-6.81c1.29-2.37,2.47-4.75,3.56-7.14a53.24,53.24,0,0,0,2.51-6.55h11.69A95.56,95.56,0,0,1,540,95.31q-2.85,5.55-6.1,10.73c-2.18,3.46-4.38,6.69-6.63,9.7s-4.33,5.57-6.25,7.69Z"/><path class="cls-4" d="M560.14,124.47a18,18,0,0,1-6.8-1.18,12.62,12.62,0,0,1-4.78-3.33,14.46,14.46,0,0,1-2.84-5.07,20.4,20.4,0,0,1-1-6.48,28.36,28.36,0,0,1,1.45-8.88,25.47,25.47,0,0,1,4.25-8,22.89,22.89,0,0,1,6.88-5.81,19,19,0,0,1,9.33-2.26,17.94,17.94,0,0,1,6.77,1.19A12.58,12.58,0,0,1,578.24,88a14.48,14.48,0,0,1,2.85,5.07,20.63,20.63,0,0,1,1,6.47,29.2,29.2,0,0,1-1.41,8.88,25.51,25.51,0,0,1-4.14,8,21.71,21.71,0,0,1-6.85,5.81A19.33,19.33,0,0,1,560.14,124.47Zm5.48-31.67a6.92,6.92,0,0,0-4.29,1.4,12.2,12.2,0,0,0-3.11,3.56,17.4,17.4,0,0,0-1.89,4.7,20.18,20.18,0,0,0-.63,4.84,11.66,11.66,0,0,0,1.19,5.81q1.18,2,4.29,2a6.87,6.87,0,0,0,4.29-1.41,12,12,0,0,0,3.11-3.55,17.53,17.53,0,0,0,1.89-4.7,20.26,20.26,0,0,0,.63-4.85,11.69,11.69,0,0,0-1.19-5.81Q568.73,92.81,565.62,92.8Z"/><path class="cls-4" d="M597.66,115.59c2.52,0,4.24-.36,5.18-1.07a3,3,0,0,0,1.41-2.33,3.51,3.51,0,0,0-.26-1.41,3.3,3.3,0,0,0-.85-1.11,9.38,9.38,0,0,0-1.63-1.07c-.69-.37-1.58-.81-2.66-1.3a35.27,35.27,0,0,1-3.48-1.74,11.6,11.6,0,0,1-2.85-2.22,9.74,9.74,0,0,1-1.92-3,10.12,10.12,0,0,1-.71-4A11.42,11.42,0,0,1,594.3,87q4.4-3.48,12.83-3.48a26,26,0,0,1,7.11.89,25.53,25.53,0,0,1,5,1.93L615.5,94.5a23.46,23.46,0,0,0-4-1.55,16.31,16.31,0,0,0-4.81-.74,16.92,16.92,0,0,0-2,.11,6.21,6.21,0,0,0-1.86.48,3.37,3.37,0,0,0-1.36,1,2.81,2.81,0,0,0-.52,1.78,2.45,2.45,0,0,0,1.15,2.22,35.12,35.12,0,0,0,3.21,1.78,53.42,53.42,0,0,1,4.81,2.59,13,13,0,0,1,3.08,2.51,8.43,8.43,0,0,1,1.66,3,13.55,13.55,0,0,1,.52,4,11.63,11.63,0,0,1-1,4.66,10.87,10.87,0,0,1-3.15,4.07,16.72,16.72,0,0,1-5.47,2.89,25.43,25.43,0,0,1-8,1.11,33,33,0,0,1-5.22-.37,30.06,30.06,0,0,1-4.11-.93,22.56,22.56,0,0,1-3-1.14q-1.23-.6-1.89-1l3.77-8.44a35.71,35.71,0,0,0,3.92,1.85A16.77,16.77,0,0,0,597.66,115.59Z"/><path class="cls-4" d="M187.58,202.47c-3.7,0-6.42-.81-8.14-2.44s-2.59-4-2.59-7.11a37.91,37.91,0,0,1,1-7.77l7.92-32.93L193,151,190.09,163h13.1l-1.41,5.78H188.69l-4.07,17a24.62,24.62,0,0,0-.89,6.06,4.26,4.26,0,0,0,1.33,3.52,7.2,7.2,0,0,0,4.44,1.07,13,13,0,0,0,4.22-.7,21.81,21.81,0,0,0,3.18-1.3l.52,5.85a17.88,17.88,0,0,1-3.78,1.44A21.52,21.52,0,0,1,187.58,202.47Z"/><path class="cls-4" d="M219.32,202.4a17.75,17.75,0,0,1-6.51-1.08,12.85,12.85,0,0,1-4.59-3,12,12,0,0,1-2.74-4.4,15.94,15.94,0,0,1-.88-5.33,32.2,32.2,0,0,1,1.55-10,27.67,27.67,0,0,1,4.44-8.51,21.56,21.56,0,0,1,7-5.88,19.78,19.78,0,0,1,9.4-2.18,15.61,15.61,0,0,1,5.22.77,9.74,9.74,0,0,1,3.55,2.11,8.45,8.45,0,0,1,2,3.07,9.85,9.85,0,0,1,.67,3.59,12.53,12.53,0,0,1-1.26,5.88,12.36,12.36,0,0,1-3.33,4,15.38,15.38,0,0,1-4.85,2.51,40.86,40.86,0,0,1-5.77,1.41,55.53,55.53,0,0,1-6.07.7q-3.06.19-5.81.34a7.69,7.69,0,0,0-.07,1V188a12.46,12.46,0,0,0,.41,3.22,6,6,0,0,0,1.51,2.66,7.62,7.62,0,0,0,3.08,1.82,18.78,18.78,0,0,0,8.06.4,24.94,24.94,0,0,0,2.89-.66c.91-.27,1.72-.55,2.44-.82a6,6,0,0,0,1.52-.77l.59,5.84a24.22,24.22,0,0,1-4.77,1.74A28.69,28.69,0,0,1,219.32,202.4Zm-7-21.17q4.29-.15,7.85-.55a24.92,24.92,0,0,0,6.14-1.41,9.7,9.7,0,0,0,4-2.7,6.62,6.62,0,0,0,1.44-4.44,4.38,4.38,0,0,0-.25-1.41,3.76,3.76,0,0,0-.89-1.37,4.83,4.83,0,0,0-1.74-1,8,8,0,0,0-2.74-.41,10.85,10.85,0,0,0-4.85,1.11,14.84,14.84,0,0,0-4,2.92,17.67,17.67,0,0,0-3,4.22A23.36,23.36,0,0,0,212.29,181.23Z"/><path class="cls-4" d="M251.44,184.49l-.74,3.18a12.62,12.62,0,0,0-.37,3,6.07,6.07,0,0,0,1.22,4q1.22,1.47,4.55,1.85l-1.55,5.62a14.72,14.72,0,0,1-5.15-.93,9.11,9.11,0,0,1-3.4-2.25,8.71,8.71,0,0,1-1.89-3.33,14.44,14.44,0,0,1-.59-4.22,22.19,22.19,0,0,1,.3-3.55,37.94,37.94,0,0,1,.81-3.85L254,145.19l7.18-1.18Z"/><path class="cls-4" d="M277.41,202.4a17.72,17.72,0,0,1-6.51-1.08,12.77,12.77,0,0,1-4.59-3,12,12,0,0,1-2.74-4.4,15.94,15.94,0,0,1-.88-5.33,32.2,32.2,0,0,1,1.55-10,27.67,27.67,0,0,1,4.44-8.51,21.56,21.56,0,0,1,7-5.88,19.78,19.78,0,0,1,9.4-2.18,15.51,15.51,0,0,1,5.21.77,9.7,9.7,0,0,1,3.56,2.11,8.45,8.45,0,0,1,2,3.07,9.85,9.85,0,0,1,.67,3.59,12.53,12.53,0,0,1-1.26,5.88,12.36,12.36,0,0,1-3.33,4,15.38,15.38,0,0,1-4.85,2.51,40.86,40.86,0,0,1-5.77,1.41,55.53,55.53,0,0,1-6.07.7q-3.06.19-5.81.34a7.69,7.69,0,0,0-.07,1V188a12,12,0,0,0,.41,3.22,6,6,0,0,0,1.51,2.66,7.64,7.64,0,0,0,3.07,1.82,18.83,18.83,0,0,0,8.07.4,24.94,24.94,0,0,0,2.89-.66c.91-.27,1.72-.55,2.44-.82a6,6,0,0,0,1.52-.77l.59,5.84a24.12,24.12,0,0,1-4.78,1.74A28.57,28.57,0,0,1,277.41,202.4Zm-7-21.17q4.29-.15,7.85-.55a24.92,24.92,0,0,0,6.14-1.41,9.76,9.76,0,0,0,4-2.7,6.62,6.62,0,0,0,1.44-4.44,4.15,4.15,0,0,0-.26-1.41,3.73,3.73,0,0,0-.88-1.37,4.83,4.83,0,0,0-1.74-1,8.07,8.07,0,0,0-2.74-.41,10.85,10.85,0,0,0-4.85,1.11,14.84,14.84,0,0,0-4,2.92,18,18,0,0,0-3,4.22A23.85,23.85,0,0,0,270.38,181.23Z"/><path class="cls-4" d="M301,187.67a31.12,31.12,0,0,1,1.51-9.69,24.62,24.62,0,0,1,4.48-8.22A21.51,21.51,0,0,1,324.1,162a31.79,31.79,0,0,1,4.67.33,14.92,14.92,0,0,1,4.21,1.3l-2.59,5.77a10.37,10.37,0,0,0-2.77-1,18.48,18.48,0,0,0-4.11-.37,13.27,13.27,0,0,0-6.51,1.59,15.9,15.9,0,0,0-4.92,4.21,19.26,19.26,0,0,0-3.11,6.07A24.07,24.07,0,0,0,307.9,187a15.06,15.06,0,0,0,.41,3.63,7.61,7.61,0,0,0,1.44,3,6.92,6.92,0,0,0,2.77,2,11.21,11.21,0,0,0,4.41.74,15.71,15.71,0,0,0,2.81-.26,24.09,24.09,0,0,0,2.74-.63,22.56,22.56,0,0,0,2.25-.77,5.63,5.63,0,0,0,1.45-.78l.59,5.85a17.59,17.59,0,0,1-4.37,1.73,24.26,24.26,0,0,1-6.73.86,17,17,0,0,1-6.29-1.08,12.28,12.28,0,0,1-4.59-3,13.16,13.16,0,0,1-2.81-4.66A17.7,17.7,0,0,1,301,187.67Z"/><path class="cls-4" d="M339.5,201.43h-6.89L341.86,163h6.89Zm8-45.43a4.08,4.08,0,0,1-2.85-1,3.67,3.67,0,0,1-1.15-2.88A4.87,4.87,0,0,1,348.3,147a4.17,4.17,0,0,1,2.89,1.07,3.85,3.85,0,0,1,1.18,3,4.57,4.57,0,0,1-1.55,3.59A5,5,0,0,1,347.49,156Z"/><path class="cls-4" d="M357.92,201.43H351l8.88-37a55,55,0,0,1,7.36-1.66,45.55,45.55,0,0,1,7.07-.63,16.09,16.09,0,0,1,5.73.92,10.25,10.25,0,0,1,3.89,2.52,9.8,9.8,0,0,1,2.18,3.85,16.38,16.38,0,0,1,.71,4.92,22.87,22.87,0,0,1-.3,3.59c-.2,1.26-.44,2.53-.74,3.81l-4.74,19.68H374.2l4.37-18.2c.34-1.38.67-2.79,1-4.22a18.68,18.68,0,0,0,.48-4.07,7.48,7.48,0,0,0-1.63-4.92q-1.64-2-6.07-2a29,29,0,0,0-3.63.22,18.34,18.34,0,0,0-3,.59Z"/><path class="cls-4" d="M393.59,187.67a30.84,30.84,0,0,1,1.52-9.69,24.6,24.6,0,0,1,4.47-8.22,21.55,21.55,0,0,1,17.1-7.77,31.75,31.75,0,0,1,4.66.33,15.09,15.09,0,0,1,4.22,1.3L423,169.39a10.44,10.44,0,0,0-2.78-1,18.44,18.44,0,0,0-4.1-.37,13.31,13.31,0,0,0-6.52,1.59,15.9,15.9,0,0,0-4.92,4.21,19.26,19.26,0,0,0-3.11,6.07,24.07,24.07,0,0,0-1.07,7.14,15.58,15.58,0,0,0,.41,3.63,7.61,7.61,0,0,0,1.44,3,7,7,0,0,0,2.78,2,11.13,11.13,0,0,0,4.4.74,15.63,15.63,0,0,0,2.81-.26,23.61,23.61,0,0,0,2.74-.63,22.8,22.8,0,0,0,2.26-.77,5.71,5.71,0,0,0,1.44-.78l.59,5.85a17.59,17.59,0,0,1-4.37,1.73,24.21,24.21,0,0,1-6.73.86,17.06,17.06,0,0,1-6.29-1.08,12.44,12.44,0,0,1-4.59-3,13.16,13.16,0,0,1-2.81-4.66A17.7,17.7,0,0,1,393.59,187.67Z"/><path class="cls-4" d="M439.17,202.4q-6.06,0-9.51-3.59t-3.44-9.88a36.4,36.4,0,0,1,1.22-9,28.38,28.38,0,0,1,3.89-8.73,21.9,21.9,0,0,1,6.88-6.59A19.21,19.21,0,0,1,448.42,162q6.07,0,9.51,3.59t3.44,9.88a35.93,35.93,0,0,1-1.22,9,28.36,28.36,0,0,1-3.88,8.73,22,22,0,0,1-6.89,6.59A19.19,19.19,0,0,1,439.17,202.4Zm1.19-5.85a9.82,9.82,0,0,0,5.95-1.92,17,17,0,0,0,4.44-4.92,25.16,25.16,0,0,0,2.78-6.63,27.38,27.38,0,0,0,1-7,9.9,9.9,0,0,0-1.63-6c-1.08-1.48-3-2.22-5.62-2.22a9.85,9.85,0,0,0-6,1.92,16.73,16.73,0,0,0-4.44,4.92,25.14,25.14,0,0,0-2.77,6.63,27.4,27.4,0,0,0-1,7,10,10,0,0,0,1.63,6C435.82,195.81,437.69,196.55,440.36,196.55Z"/><path class="cls-4" d="M257.71,93.13A16.28,16.28,0,0,1,260,93a20.49,20.49,0,0,1,4.26.33c1,.22,1.93.46,2.92.7l3.26-8.88a15.85,15.85,0,0,0-4-1.07,28.74,28.74,0,0,0-4.11-.33,39,39,0,0,0-8.91.92c-2.64.62-5,1.27-7.15,2l-2.94,12.21c-.07.26-.16.51-.22.77l-5.72,23.87h11l3-12.64,12.38-.15,2-9,.38-1.58h0l0-.11-6.3.11h-5.94l1.57-6.53A16.76,16.76,0,0,1,257.71,93.13Z"/><path class="cls-4" d="M1142.08,83.06H984.66c-67.27,0-77.43,73.16-90.5,124.59l233.2,0c31.08,0,57.09-26.39,58-59.91,0-.81,0-1.63,0-2.45C1185.32,110.91,1166,83.06,1142.08,83.06Z"/><path class="cls-1" d="M1268.61,73.81c-3.57,40.74-39.53,73.81-80.27,73.81s-70.92-33.07-67.35-73.81S1160.51,0,1201.25,0,1272.17,33.07,1268.61,73.81Z"/><path class="cls-2" d="M1174.91,49.38c2.61-5.88,3.95-14.45,15.34-14.45h32.85c-2.16,7.15-6.55,14.45-17.28,14.45Z"/><path class="cls-2" d="M1189.81,82.75A11.4,11.4,0,0,1,1179,91.91c-5.06,0-8.44-4.1-7.54-9.16a11.38,11.38,0,0,1,10.77-9.16C1187.34,73.51,1190.7,77.68,1189.81,82.75Z"/><path class="cls-2" d="M1169.1,95l-6,13.11s4.69,1,16.24,1c26.22,0,43.5-8.42,43.5-27.26s-18.33-25.7-39.33-25.7l-11,.53-6.11,13.63c-.15,0,6.11-.53,13-.53,19.37,0,27.78,4.7,27.78,12.07s-6.78,13.63-28.3,13.63C1174.09,95.56,1168.88,95,1169.1,95Z"/><path class="cls-2" d="M989,171H977.32l9.87-41.55H999Zm5.69-46.6a7.29,7.29,0,0,1-4.43-1.46,5.21,5.21,0,0,1-2-4.47,7.38,7.38,0,0,1,.67-3.12,8.27,8.27,0,0,1,1.78-2.52,8.48,8.48,0,0,1,2.56-1.7,7.84,7.84,0,0,1,3.12-.63,7.25,7.25,0,0,1,4.43,1.46,5.19,5.19,0,0,1,2,4.46,7.32,7.32,0,0,1-.67,3.12,8.2,8.2,0,0,1-1.78,2.53,8.48,8.48,0,0,1-2.56,1.7A7.84,7.84,0,0,1,994.7,124.4Z"/><path class="cls-2" d="M1009.23,131.35c.89-.26,1.88-.57,3-.91s2.29-.66,3.63-.95,2.85-.52,4.51-.71a52.78,52.78,0,0,1,5.64-.27q9.33,0,12.8,5.37t1.18,14.69L1034.58,171h-11.76l5.21-22q.46-2.06.75-4a9.76,9.76,0,0,0,0-3.39,4,4,0,0,0-1.46-2.37,5.61,5.61,0,0,0-3.52-.91,24.15,24.15,0,0,0-4.66.47L1011.44,171H999.67Z"/><path class="cls-2" d="M1100.2,172.11a19.07,19.07,0,0,1-7.26-1.27,13.34,13.34,0,0,1-5.1-3.55,15.35,15.35,0,0,1-3-5.41,22.17,22.17,0,0,1-1-6.91,30.72,30.72,0,0,1,1.54-9.48,26.94,26.94,0,0,1,4.55-8.53,24.19,24.19,0,0,1,7.34-6.2,20.13,20.13,0,0,1,10-2.41,19.21,19.21,0,0,1,7.23,1.26,13.43,13.43,0,0,1,5.14,3.56,15.41,15.41,0,0,1,3,5.41,22.13,22.13,0,0,1,1,6.91,31.27,31.27,0,0,1-1.5,9.48,27.36,27.36,0,0,1-4.42,8.53,23.31,23.31,0,0,1-7.31,6.2A20.78,20.78,0,0,1,1100.2,172.11Zm5.85-33.81a7.34,7.34,0,0,0-4.58,1.5,12.83,12.83,0,0,0-3.32,3.79,18.32,18.32,0,0,0-2,5,21.5,21.5,0,0,0-.68,5.17,12.36,12.36,0,0,0,1.27,6.2q1.26,2.18,4.58,2.17a7.36,7.36,0,0,0,4.58-1.5,12.84,12.84,0,0,0,3.32-3.79,19,19,0,0,0,2-5,21.54,21.54,0,0,0,.67-5.18,12.51,12.51,0,0,0-1.26-6.2Q1109.37,138.3,1106.05,138.3Z"/><path class="cls-2" d="M1066.71,138.66a15.9,15.9,0,0,1,2.45-.2,22.18,22.18,0,0,1,4.54.35l3.12.75,3.48-9.47a16.67,16.67,0,0,0-4.23-1.15,29.84,29.84,0,0,0-4.38-.36,41.87,41.87,0,0,0-9.52,1q-4.23,1-7.62,2.1l-3.14,13c-.08.27-.17.54-.24.82l-6.1,25.48h11.77l3.24-13.5,13.22-.15,2.18-9.6.41-1.69h0l0-.11-6.72.11h-6.34l1.67-7A18.89,18.89,0,0,1,1066.71,138.66Z"/><polygon class="cls-4" points="720.92 152 743.85 152 743.85 161.97 766.64 148.83 743.85 135.69 743.85 145.66 720.92 145.66 720.92 152"/><polygon class="cls-4" points="1323.47 152 1346.4 152 1346.4 161.97 1369.19 148.83 1346.4 135.69 1346.4 145.66 1323.47 145.66 1323.47 152"/></g></g></svg>