<svg xmlns="http://www.w3.org/2000/svg" viewBox="0 0 699.84 259.24"><defs><style>.cls-1{fill:#00a3d8;}.cls-2{fill:#fff;}.cls-3{fill:#2e314c;}</style></defs><g id="Capa_2" data-name="Capa 2"><g id="Versiones_negativo_positivo" data-name="Versiones/negativo/positivo"><path class="cls-1" d="M699.34,129.62c-6.26,71.55-69.42,129.62-141,129.62S433.83,201.17,440.09,129.62,509.51,0,581.05,0,705.6,58.07,699.34,129.62Z"/><path class="cls-2" d="M534.79,86.72c4.58-10.33,6.93-25.37,27-25.37h57.68c-3.8,12.55-11.51,25.37-30.35,25.37Z"/><path class="cls-2" d="M561,145.32c-1.57,8.89-10,16.09-18.92,16.09s-14.82-7.2-13.25-16.09,10-16.09,18.92-16.09S562.52,136.42,561,145.32Z"/><path class="cls-2" d="M524.59,166.9l-10.47,23s8.24,1.83,28.52,1.83c46,0,76.39-14.78,76.39-47.87S586.85,98.75,550,98.75l-19.35.92-10.73,23.94c-.26,0,10.73-.92,22.76-.92,34,0,48.79,8.24,48.79,21.19s-11.91,23.94-49.71,23.94C533.35,167.82,524.2,166.9,524.59,166.9Z"/><circle class="cls-1" cx="128.39" cy="129.23" r="128.39"/><path class="cls-2" d="M96.41,89.4C101,79.07,103.34,64,123.36,64H181c-3.8,12.56-11.51,25.38-30.35,25.38Z"/><path class="cls-2" d="M122.57,148c-1.57,8.89-10,16.09-18.92,16.09S88.83,156.89,90.4,148s10-16.09,18.92-16.09S124.14,139.1,122.57,148Z"/><path class="cls-2" d="M86.21,169.58l-10.46,23s8.24,1.83,28.51,1.83c46,0,76.39-14.78,76.39-47.87s-32.18-45.13-69.07-45.13l-19.35.92L81.5,126.29c-.26,0,10.73-.92,22.76-.92,34,0,48.79,8.24,48.79,21.19s-11.91,23.94-49.71,23.94C95,170.5,85.82,169.58,86.21,169.58Z"/><polygon class="cls-3" points="306.62 139.64 348.31 139.64 348.31 157.78 389.76 133.88 348.31 109.98 348.31 128.11 306.62 128.11 306.62 139.64"/></g></g></svg>